<svg xmlns="http://www.w3.org/2000/svg" xmlns:xlink="http://www.w3.org/1999/xlink" width="50" zoomAndPan="magnify" viewBox="0 0 37.5 37.499999" height="50" preserveAspectRatio="xMidYMid meet" version="1.2"><defs><clipPath id="7454456577"><path d="M 2 2 L 35.304688 2 L 35.304688 35.304688 L 2 35.304688 Z M 2 2 "/></clipPath></defs><g id="f75847bec6"><g clip-rule="nonzero" clip-path="url(#7454456577)"><path style=" stroke:none;fill-rule:nonzero;fill:#006633;fill-opacity:1;" d="M 35.304688 18.652344 C 35.304688 19.195312 35.277344 19.742188 35.222656 20.285156 C 35.171875 20.828125 35.089844 21.363281 34.984375 21.898438 C 34.878906 22.433594 34.746094 22.964844 34.585938 23.484375 C 34.429688 24.007812 34.246094 24.519531 34.035156 25.023438 C 33.828125 25.527344 33.59375 26.019531 33.339844 26.5 C 33.082031 26.984375 32.800781 27.449219 32.496094 27.902344 C 32.195312 28.355469 31.871094 28.792969 31.523438 29.214844 C 31.179688 29.636719 30.8125 30.042969 30.425781 30.425781 C 30.042969 30.8125 29.636719 31.179688 29.214844 31.523438 C 28.792969 31.871094 28.355469 32.195312 27.902344 32.496094 C 27.449219 32.800781 26.984375 33.082031 26.5 33.339844 C 26.019531 33.59375 25.527344 33.828125 25.023438 34.035156 C 24.519531 34.246094 24.007812 34.429688 23.484375 34.585938 C 22.964844 34.746094 22.433594 34.878906 21.898438 34.984375 C 21.363281 35.089844 20.828125 35.171875 20.285156 35.222656 C 19.742188 35.277344 19.195312 35.304688 18.652344 35.304688 C 18.105469 35.304688 17.5625 35.277344 17.019531 35.222656 C 16.476562 35.171875 15.9375 35.089844 15.402344 34.984375 C 14.867188 34.878906 14.339844 34.746094 13.816406 34.585938 C 13.296875 34.429688 12.78125 34.246094 12.277344 34.035156 C 11.773438 33.828125 11.28125 33.59375 10.800781 33.339844 C 10.320312 33.082031 9.851562 32.800781 9.398438 32.496094 C 8.945312 32.195312 8.507812 31.871094 8.085938 31.523438 C 7.664062 31.179688 7.261719 30.8125 6.875 30.425781 C 6.488281 30.042969 6.125 29.636719 5.777344 29.214844 C 5.433594 28.792969 5.109375 28.355469 4.804688 27.902344 C 4.5 27.449219 4.222656 26.984375 3.964844 26.5 C 3.707031 26.019531 3.476562 25.527344 3.265625 25.023438 C 3.058594 24.519531 2.875 24.007812 2.714844 23.484375 C 2.558594 22.964844 2.425781 22.433594 2.316406 21.898438 C 2.210938 21.363281 2.132812 20.828125 2.078125 20.285156 C 2.023438 19.742188 2 19.195312 2 18.652344 C 2 18.105469 2.023438 17.5625 2.078125 17.019531 C 2.132812 16.476562 2.210938 15.9375 2.316406 15.402344 C 2.425781 14.867188 2.558594 14.339844 2.714844 13.816406 C 2.875 13.296875 3.058594 12.78125 3.265625 12.277344 C 3.476562 11.773438 3.707031 11.28125 3.964844 10.800781 C 4.222656 10.320312 4.5 9.851562 4.804688 9.398438 C 5.109375 8.945312 5.433594 8.507812 5.777344 8.085938 C 6.125 7.664062 6.488281 7.261719 6.875 6.875 C 7.261719 6.488281 7.664062 6.125 8.085938 5.777344 C 8.507812 5.433594 8.945312 5.109375 9.398438 4.804688 C 9.851562 4.5 10.320312 4.222656 10.800781 3.964844 C 11.28125 3.707031 11.773438 3.476562 12.277344 3.265625 C 12.78125 3.058594 13.296875 2.875 13.816406 2.714844 C 14.339844 2.558594 14.867188 2.425781 15.402344 2.316406 C 15.9375 2.210938 16.476562 2.132812 17.019531 2.078125 C 17.5625 2.023438 18.105469 2 18.652344 2 C 19.195312 2 19.742188 2.023438 20.285156 2.078125 C 20.828125 2.132812 21.363281 2.210938 21.898438 2.316406 C 22.433594 2.425781 22.964844 2.558594 23.484375 2.714844 C 24.007812 2.875 24.519531 3.058594 25.023438 3.265625 C 25.527344 3.476562 26.019531 3.707031 26.5 3.964844 C 26.984375 4.222656 27.449219 4.5 27.902344 4.804688 C 28.355469 5.109375 28.792969 5.433594 29.214844 5.777344 C 29.636719 6.125 30.042969 6.488281 30.425781 6.875 C 30.8125 7.261719 31.179688 7.664062 31.523438 8.085938 C 31.871094 8.507812 32.195312 8.945312 32.496094 9.398438 C 32.800781 9.851562 33.082031 10.320312 33.339844 10.800781 C 33.59375 11.28125 33.828125 11.773438 34.035156 12.277344 C 34.246094 12.78125 34.429688 13.296875 34.585938 13.816406 C 34.746094 14.339844 34.878906 14.867188 34.984375 15.402344 C 35.089844 15.9375 35.171875 16.476562 35.222656 17.019531 C 35.277344 17.5625 35.304688 18.105469 35.304688 18.652344 Z M 35.304688 18.652344 "/></g><path style=" stroke:none;fill-rule:nonzero;fill:#bcdf21;fill-opacity:1;" d="M 34.65625 18.652344 C 34.65625 19.175781 34.628906 19.699219 34.578125 20.21875 C 34.527344 20.742188 34.449219 21.257812 34.347656 21.773438 C 34.246094 22.289062 34.117188 22.796875 33.964844 23.296875 C 33.8125 23.796875 33.636719 24.292969 33.4375 24.777344 C 33.238281 25.261719 33.011719 25.734375 32.765625 26.195312 C 32.519531 26.65625 32.25 27.105469 31.957031 27.542969 C 31.667969 27.980469 31.355469 28.398438 31.023438 28.804688 C 30.691406 29.210938 30.339844 29.597656 29.96875 29.96875 C 29.597656 30.339844 29.210938 30.691406 28.804688 31.023438 C 28.398438 31.355469 27.980469 31.667969 27.542969 31.957031 C 27.105469 32.25 26.65625 32.519531 26.195312 32.765625 C 25.734375 33.011719 25.261719 33.238281 24.777344 33.4375 C 24.292969 33.636719 23.796875 33.8125 23.296875 33.964844 C 22.796875 34.117188 22.289062 34.246094 21.773438 34.347656 C 21.257812 34.449219 20.742188 34.527344 20.21875 34.578125 C 19.699219 34.628906 19.175781 34.65625 18.652344 34.65625 C 18.128906 34.65625 17.605469 34.628906 17.082031 34.578125 C 16.5625 34.527344 16.042969 34.449219 15.527344 34.347656 C 15.015625 34.246094 14.507812 34.117188 14.003906 33.964844 C 13.503906 33.8125 13.011719 33.636719 12.527344 33.4375 C 12.042969 33.238281 11.570312 33.011719 11.105469 32.765625 C 10.644531 32.519531 10.195312 32.25 9.761719 31.957031 C 9.324219 31.667969 8.902344 31.355469 8.5 31.023438 C 8.09375 30.691406 7.707031 30.339844 7.335938 29.96875 C 6.964844 29.597656 6.613281 29.210938 6.28125 28.804688 C 5.949219 28.398438 5.636719 27.980469 5.34375 27.542969 C 5.054688 27.105469 4.785156 26.65625 4.535156 26.195312 C 4.289062 25.734375 4.066406 25.261719 3.867188 24.777344 C 3.664062 24.292969 3.488281 23.796875 3.335938 23.296875 C 3.183594 22.796875 3.058594 22.289062 2.953125 21.773438 C 2.851562 21.257812 2.777344 20.742188 2.722656 20.21875 C 2.671875 19.699219 2.648438 19.175781 2.648438 18.652344 C 2.648438 18.128906 2.671875 17.605469 2.722656 17.082031 C 2.777344 16.5625 2.851562 16.042969 2.953125 15.527344 C 3.058594 15.015625 3.183594 14.507812 3.335938 14.003906 C 3.488281 13.503906 3.664062 13.011719 3.867188 12.527344 C 4.066406 12.042969 4.289062 11.570312 4.535156 11.105469 C 4.785156 10.644531 5.054688 10.195312 5.34375 9.761719 C 5.636719 9.324219 5.949219 8.902344 6.28125 8.5 C 6.613281 8.09375 6.964844 7.707031 7.335938 7.335938 C 7.707031 6.964844 8.09375 6.613281 8.5 6.28125 C 8.902344 5.949219 9.324219 5.636719 9.761719 5.34375 C 10.195312 5.054688 10.644531 4.785156 11.105469 4.535156 C 11.570312 4.289062 12.042969 4.066406 12.527344 3.867188 C 13.011719 3.664062 13.503906 3.488281 14.003906 3.335938 C 14.507812 3.183594 15.015625 3.058594 15.527344 2.953125 C 16.042969 2.851562 16.5625 2.777344 17.082031 2.722656 C 17.605469 2.671875 18.128906 2.648438 18.652344 2.648438 C 19.175781 2.648438 19.699219 2.671875 20.21875 2.722656 C 20.742188 2.777344 21.257812 2.851562 21.773438 2.953125 C 22.289062 3.058594 22.796875 3.183594 23.296875 3.335938 C 23.796875 3.488281 24.292969 3.664062 24.777344 3.867188 C 25.261719 4.066406 25.734375 4.289062 26.195312 4.535156 C 26.65625 4.785156 27.105469 5.054688 27.542969 5.34375 C 27.980469 5.636719 28.398438 5.949219 28.804688 6.28125 C 29.210938 6.613281 29.597656 6.964844 29.96875 7.335938 C 30.339844 7.707031 30.691406 8.09375 31.023438 8.5 C 31.355469 8.902344 31.667969 9.324219 31.957031 9.761719 C 32.25 10.195312 32.519531 10.644531 32.765625 11.105469 C 33.011719 11.570312 33.238281 12.042969 33.4375 12.527344 C 33.636719 13.011719 33.8125 13.503906 33.964844 14.003906 C 34.117188 14.507812 34.246094 15.015625 34.347656 15.527344 C 34.449219 16.042969 34.527344 16.5625 34.578125 17.082031 C 34.628906 17.605469 34.65625 18.128906 34.65625 18.652344 Z M 34.65625 18.652344 "/><path style=" stroke:none;fill-rule:evenodd;fill:#9bba12;fill-opacity:1;" d="M 27.292969 6.367188 C 31.148438 9.085938 33.667969 13.574219 33.667969 18.652344 C 33.667969 26.945312 26.945312 33.667969 18.652344 33.667969 C 13.460938 33.667969 8.882812 31.035156 6.1875 27.027344 C 8.628906 28.753906 11.609375 29.765625 14.828125 29.765625 C 23.121094 29.765625 29.847656 23.039062 29.847656 14.746094 C 29.847656 11.644531 28.90625 8.761719 27.292969 6.367188 Z M 27.292969 6.367188 "/><path style=" stroke:none;fill-rule:evenodd;fill:#eaff8c;fill-opacity:1;" d="M 18.660156 33.238281 C 20.839844 33.238281 22.605469 32.222656 22.605469 30.964844 C 22.605469 29.710938 20.839844 28.691406 18.660156 28.691406 C 16.476562 28.691406 14.710938 29.710938 14.710938 30.964844 C 14.710938 32.222656 16.476562 33.238281 18.660156 33.238281 Z M 18.660156 33.238281 "/><path style=" stroke:none;fill-rule:evenodd;fill:#006633;fill-opacity:1;" d="M 22.59375 30.785156 C 22.433594 29.613281 20.730469 28.691406 18.660156 28.691406 C 16.585938 28.691406 14.886719 29.613281 14.722656 30.785156 C 14.886719 31.953125 16.585938 32.875 18.660156 32.875 C 20.730469 32.875 22.433594 31.953125 22.59375 30.785156 Z M 22.59375 30.785156 "/><path style=" stroke:none;fill-rule:evenodd;fill:#eaff8c;fill-opacity:1;" d="M 18.660156 14.015625 C 21.21875 14.015625 23.292969 16.09375 23.292969 18.652344 C 23.292969 21.210938 21.21875 23.285156 18.660156 23.285156 C 16.097656 23.285156 14.023438 21.210938 14.023438 18.652344 C 14.023438 16.09375 16.097656 14.015625 18.660156 14.015625 Z M 18.660156 14.015625 "/><path style=" stroke:none;fill-rule:evenodd;fill:#006633;fill-opacity:1;" d="M 23.28125 18.996094 C 23.105469 21.394531 21.101562 23.285156 18.660156 23.285156 C 16.214844 23.285156 14.210938 21.394531 14.039062 18.996094 C 14.210938 16.59375 16.214844 14.703125 18.660156 14.703125 C 21.101562 14.703125 23.105469 16.59375 23.28125 18.996094 Z M 23.28125 18.996094 "/><path style=" stroke:none;fill-rule:evenodd;fill:#eaff8c;fill-opacity:1;" d="M 30.671875 26.683594 C 29.539062 28.546875 27.75 29.527344 26.675781 28.875 C 25.605469 28.222656 25.652344 26.183594 26.785156 24.320312 C 27.917969 22.457031 29.703125 21.476562 30.777344 22.128906 C 31.851562 22.78125 31.804688 24.820312 30.671875 26.683594 Z M 30.671875 26.683594 "/><path style=" stroke:none;fill-rule:evenodd;fill:#006633;fill-opacity:1;" d="M 26.875 28.972656 C 26.804688 28.945312 26.742188 28.914062 26.675781 28.875 C 25.605469 28.222656 25.652344 26.183594 26.785156 24.320312 C 27.722656 22.773438 29.113281 21.835938 30.171875 21.933594 C 30.242188 21.960938 30.304688 21.992188 30.371094 22.03125 C 31.441406 22.683594 31.394531 24.722656 30.261719 26.585938 C 29.324219 28.132812 27.933594 29.070312 26.875 28.972656 Z M 26.875 28.972656 "/><path style=" stroke:none;fill-rule:evenodd;fill:#eaff8c;fill-opacity:1;" d="M 6.632812 26.683594 C 7.765625 28.546875 9.550781 29.527344 10.625 28.875 C 11.699219 28.222656 11.652344 26.183594 10.519531 24.320312 C 9.386719 22.457031 7.597656 21.476562 6.523438 22.128906 C 5.453125 22.78125 5.5 24.820312 6.632812 26.683594 Z M 6.632812 26.683594 "/><path style=" stroke:none;fill-rule:evenodd;fill:#006633;fill-opacity:1;" d="M 10.679688 28.839844 C 11.695312 28.152344 11.632812 26.152344 10.519531 24.320312 C 9.5 22.644531 7.949219 21.679688 6.867188 21.980469 C 5.851562 22.667969 5.917969 24.667969 7.027344 26.5 C 8.046875 28.175781 9.597656 29.140625 10.679688 28.839844 Z M 10.679688 28.839844 "/><path style=" stroke:none;fill-rule:evenodd;fill:#eaff8c;fill-opacity:1;" d="M 30.671875 11.25 C 29.539062 9.386719 27.75 8.402344 26.675781 9.054688 C 25.605469 9.707031 25.652344 11.746094 26.785156 13.609375 C 27.917969 15.472656 29.703125 16.457031 30.777344 15.804688 C 31.851562 15.152344 31.804688 13.113281 30.671875 11.25 Z M 30.671875 11.25 "/><path style=" stroke:none;fill-rule:evenodd;fill:#006633;fill-opacity:1;" d="M 26.476562 9.207031 C 25.617188 9.980469 25.726562 11.871094 26.785156 13.609375 C 27.890625 15.429688 29.617188 16.40625 30.699219 15.847656 C 31.558594 15.070312 31.449219 13.179688 30.390625 11.441406 C 29.285156 9.625 27.558594 8.644531 26.476562 9.207031 Z M 26.476562 9.207031 "/><path style=" stroke:none;fill-rule:evenodd;fill:#eaff8c;fill-opacity:1;" d="M 6.632812 11.25 C 7.765625 9.386719 9.550781 8.402344 10.625 9.054688 C 11.699219 9.707031 11.652344 11.746094 10.519531 13.609375 C 9.386719 15.472656 7.597656 16.457031 6.523438 15.804688 C 5.453125 15.152344 5.5 13.113281 6.632812 11.25 Z M 6.632812 11.25 "/><path style=" stroke:none;fill-rule:evenodd;fill:#006633;fill-opacity:1;" d="M 10.730469 9.128906 C 11.695312 9.847656 11.613281 11.8125 10.519531 13.609375 C 9.472656 15.332031 7.867188 16.300781 6.785156 15.925781 C 5.820312 15.207031 5.902344 13.242188 6.996094 11.441406 C 8.042969 9.722656 9.644531 8.753906 10.730469 9.128906 Z M 10.730469 9.128906 "/><path style=" stroke:none;fill-rule:evenodd;fill:#eaff8c;fill-opacity:1;" d="M 18.660156 4.492188 C 20.839844 4.492188 22.605469 5.511719 22.605469 6.765625 C 22.605469 8.023438 20.839844 9.039062 18.660156 9.039062 C 16.476562 9.039062 14.710938 8.023438 14.710938 6.765625 C 14.710938 5.511719 16.476562 4.492188 18.660156 4.492188 Z M 18.660156 4.492188 "/><path style=" stroke:none;fill-rule:evenodd;fill:#006633;fill-opacity:1;" d="M 22.59375 6.9375 C 22.441406 8.113281 20.738281 9.039062 18.660156 9.039062 C 16.578125 9.039062 14.875 8.113281 14.722656 6.9375 C 14.875 5.761719 16.578125 4.835938 18.660156 4.835938 C 20.738281 4.835938 22.441406 5.761719 22.59375 6.9375 Z M 22.59375 6.9375 "/><g style="fill:#000000;fill-opacity:1;"><g transform="translate(17.945877, 36.291117)"><path style="stroke:none" d="M 0.609375 0.015625 C 0.515625 0.015625 0.429688 -0.00390625 0.359375 -0.046875 C 0.285156 -0.0859375 0.222656 -0.148438 0.171875 -0.234375 C 0.128906 -0.316406 0.109375 -0.414062 0.109375 -0.53125 C 0.109375 -0.644531 0.128906 -0.742188 0.171875 -0.828125 C 0.222656 -0.910156 0.285156 -0.972656 0.359375 -1.015625 C 0.429688 -1.054688 0.515625 -1.078125 0.609375 -1.078125 C 0.722656 -1.078125 0.8125 -1.054688 0.875 -1.015625 C 0.9375 -0.972656 0.984375 -0.914062 1.015625 -0.84375 L 0.90625 -0.765625 L 0.890625 -0.765625 C 0.859375 -0.828125 0.820312 -0.867188 0.78125 -0.890625 C 0.738281 -0.921875 0.679688 -0.9375 0.609375 -0.9375 C 0.546875 -0.9375 0.488281 -0.921875 0.4375 -0.890625 C 0.382812 -0.859375 0.34375 -0.8125 0.3125 -0.75 C 0.289062 -0.6875 0.28125 -0.613281 0.28125 -0.53125 C 0.28125 -0.4375 0.289062 -0.359375 0.3125 -0.296875 C 0.34375 -0.242188 0.382812 -0.203125 0.4375 -0.171875 C 0.488281 -0.140625 0.546875 -0.125 0.609375 -0.125 C 0.679688 -0.125 0.738281 -0.140625 0.78125 -0.171875 C 0.832031 -0.203125 0.875 -0.253906 0.90625 -0.328125 L 0.921875 -0.328125 L 1.03125 -0.265625 C 1 -0.179688 0.945312 -0.113281 0.875 -0.0625 C 0.8125 -0.0078125 0.722656 0.015625 0.609375 0.015625 Z M 0.609375 0.015625 "/></g></g></g></svg>