<svg xmlns="http://www.w3.org/2000/svg" xmlns:xlink="http://www.w3.org/1999/xlink" width="800" zoomAndPan="magnify" viewBox="0 0 600 599.999999" height="800" preserveAspectRatio="xMidYMid meet" version="1.2"><defs><clipPath id="f6bad64040"><path d="M 13.929688 20.109375 L 580.179688 20.109375 L 580.179688 586.359375 L 13.929688 586.359375 Z M 13.929688 20.109375 "/></clipPath><clipPath id="336fbaa774"><path d="M 95 323 L 496 323 L 496 586.359375 L 95 586.359375 Z M 95 323 "/></clipPath></defs><g id="ced081679b"><g clip-rule="nonzero" clip-path="url(#f6bad64040)"><path style=" stroke:none;fill-rule:nonzero;fill:#ffc200;fill-opacity:1;" d="M 580.179688 303.234375 C 580.179688 307.867188 580.066406 312.5 579.835938 317.128906 C 579.609375 321.753906 579.269531 326.375 578.816406 330.984375 C 578.359375 335.597656 577.792969 340.195312 577.113281 344.777344 C 576.433594 349.363281 575.640625 353.925781 574.738281 358.46875 C 573.835938 363.015625 572.820312 367.535156 571.695312 372.027344 C 570.566406 376.523438 569.332031 380.988281 567.988281 385.421875 C 566.640625 389.855469 565.1875 394.253906 563.628906 398.617188 C 562.066406 402.980469 560.398438 407.300781 558.625 411.582031 C 556.855469 415.863281 554.976562 420.097656 552.996094 424.285156 C 551.015625 428.476562 548.933594 432.613281 546.746094 436.699219 C 544.5625 440.785156 542.28125 444.816406 539.898438 448.789062 C 537.515625 452.765625 535.039062 456.679688 532.464844 460.53125 C 529.890625 464.382812 527.222656 468.171875 524.460938 471.890625 C 521.703125 475.613281 518.851562 479.265625 515.914062 482.847656 C 512.972656 486.429688 509.945312 489.9375 506.835938 493.371094 C 503.722656 496.804688 500.53125 500.15625 497.253906 503.433594 C 493.976562 506.710938 490.621094 509.90625 487.1875 513.015625 C 483.753906 516.128906 480.246094 519.152344 476.667969 522.09375 C 473.085938 525.03125 469.433594 527.882812 465.710938 530.644531 C 461.988281 533.402344 458.203125 536.070312 454.347656 538.644531 C 450.496094 541.21875 446.582031 543.695312 442.609375 546.078125 C 438.632812 548.460938 434.605469 550.746094 430.519531 552.929688 C 426.429688 555.113281 422.292969 557.195312 418.105469 559.175781 C 413.917969 561.15625 409.679688 563.035156 405.402344 564.808594 C 401.121094 566.582031 396.796875 568.25 392.433594 569.808594 C 388.074219 571.371094 383.675781 572.824219 379.242188 574.167969 C 374.804688 575.515625 370.34375 576.75 365.847656 577.875 C 361.351562 579 356.832031 580.015625 352.289062 580.917969 C 347.742188 581.824219 343.179688 582.617188 338.597656 583.296875 C 334.011719 583.976562 329.414062 584.542969 324.804688 584.996094 C 320.195312 585.449219 315.574219 585.792969 310.945312 586.019531 C 306.316406 586.246094 301.6875 586.359375 297.054688 586.359375 C 292.421875 586.359375 287.789062 586.246094 283.160156 586.019531 C 278.535156 585.792969 273.914062 585.449219 269.300781 584.996094 C 264.691406 584.542969 260.09375 583.976562 255.511719 583.296875 C 250.925781 582.617188 246.363281 581.824219 241.820312 580.917969 C 237.273438 580.015625 232.753906 579 228.261719 577.875 C 223.765625 576.75 219.300781 575.511719 214.867188 574.167969 C 210.433594 572.824219 206.035156 571.371094 201.671875 569.808594 C 197.308594 568.25 192.988281 566.582031 188.707031 564.808594 C 184.425781 563.035156 180.191406 561.15625 176.003906 559.175781 C 171.8125 557.195312 167.675781 555.113281 163.589844 552.929688 C 159.503906 550.746094 155.472656 548.460938 151.5 546.078125 C 147.523438 543.695312 143.609375 541.21875 139.757812 538.644531 C 135.90625 536.070312 132.117188 533.402344 128.394531 530.644531 C 124.675781 527.882812 121.023438 525.03125 117.441406 522.09375 C 113.859375 519.152344 110.351562 516.128906 106.917969 513.015625 C 103.484375 509.90625 100.128906 506.710938 96.855469 503.433594 C 93.578125 500.15625 90.382812 496.804688 87.273438 493.371094 C 84.160156 489.9375 81.132812 486.429688 78.195312 482.847656 C 75.253906 479.265625 72.40625 475.613281 69.644531 471.890625 C 66.886719 468.171875 64.21875 464.382812 61.644531 460.53125 C 59.070312 456.679688 56.589844 452.765625 54.210938 448.789062 C 51.828125 444.816406 49.542969 440.785156 47.359375 436.699219 C 45.175781 432.613281 43.09375 428.476562 41.113281 424.285156 C 39.128906 420.097656 37.253906 415.863281 35.480469 411.582031 C 33.707031 407.300781 32.039062 402.980469 30.480469 398.617188 C 28.917969 394.253906 27.464844 389.855469 26.121094 385.421875 C 24.773438 380.988281 23.539062 376.523438 22.414062 372.027344 C 21.289062 367.535156 20.273438 363.015625 19.367188 358.46875 C 18.464844 353.925781 17.671875 349.363281 16.992188 344.777344 C 16.3125 340.195312 15.746094 335.597656 15.292969 330.984375 C 14.835938 326.375 14.496094 321.753906 14.269531 317.128906 C 14.042969 312.5 13.929688 307.867188 13.929688 303.234375 C 13.929688 298.601562 14.042969 293.96875 14.269531 289.34375 C 14.496094 284.714844 14.835938 280.09375 15.292969 275.484375 C 15.746094 270.871094 16.3125 266.273438 16.992188 261.691406 C 17.671875 257.109375 18.464844 252.542969 19.367188 248 C 20.273438 243.457031 21.289062 238.9375 22.414062 234.441406 C 23.539062 229.945312 24.773438 225.480469 26.121094 221.046875 C 27.464844 216.613281 28.917969 212.214844 30.480469 207.851562 C 32.039062 203.492188 33.707031 199.167969 35.480469 194.886719 C 37.253906 190.605469 39.128906 186.371094 41.113281 182.183594 C 43.09375 177.996094 45.175781 173.855469 47.359375 169.769531 C 49.542969 165.683594 51.828125 161.652344 54.210938 157.679688 C 56.589844 153.707031 59.070312 149.792969 61.644531 145.9375 C 64.21875 142.085938 66.886719 138.300781 69.644531 134.578125 C 72.40625 130.855469 75.253906 127.203125 78.195312 123.621094 C 81.132812 120.039062 84.160156 116.53125 87.273438 113.101562 C 90.382812 109.667969 93.578125 106.3125 96.855469 103.035156 C 100.128906 99.757812 103.484375 96.566406 106.917969 93.453125 C 110.351562 90.339844 113.859375 87.316406 117.441406 84.375 C 121.023438 81.4375 124.675781 78.585938 128.394531 75.828125 C 132.117188 73.066406 135.90625 70.398438 139.757812 67.824219 C 143.609375 65.25 147.523438 62.773438 151.5 60.390625 C 155.472656 58.007812 159.503906 55.726562 163.589844 53.539062 C 167.675781 51.355469 171.8125 49.273438 176.003906 47.292969 C 180.191406 45.3125 184.425781 43.433594 188.707031 41.660156 C 192.988281 39.886719 197.308594 38.222656 201.671875 36.660156 C 206.035156 35.097656 210.433594 33.644531 214.867188 32.300781 C 219.300781 30.957031 223.765625 29.71875 228.261719 28.59375 C 232.753906 27.46875 237.273438 26.453125 241.820312 25.550781 C 246.363281 24.644531 250.925781 23.855469 255.511719 23.175781 C 260.09375 22.496094 264.691406 21.925781 269.300781 21.472656 C 273.914062 21.019531 278.535156 20.679688 283.160156 20.449219 C 287.789062 20.222656 292.421875 20.109375 297.054688 20.109375 C 301.6875 20.109375 306.316406 20.222656 310.945312 20.449219 C 315.574219 20.679688 320.195312 21.019531 324.804688 21.472656 C 329.414062 21.925781 334.011719 22.496094 338.597656 23.175781 C 343.179688 23.855469 347.742188 24.644531 352.289062 25.550781 C 356.832031 26.453125 361.351562 27.46875 365.847656 28.59375 C 370.34375 29.71875 374.804688 30.957031 379.242188 32.300781 C 383.675781 33.644531 388.074219 35.097656 392.4375 36.660156 C 396.796875 38.222656 401.121094 39.886719 405.402344 41.660156 C 409.683594 43.433594 413.917969 45.3125 418.105469 47.292969 C 422.292969 49.273438 426.429688 51.355469 430.519531 53.539062 C 434.605469 55.726562 438.632812 58.007812 442.609375 60.390625 C 446.582031 62.773438 450.496094 65.25 454.347656 67.824219 C 458.203125 70.398438 461.988281 73.066406 465.710938 75.828125 C 469.433594 78.585938 473.085938 81.4375 476.667969 84.375 C 480.246094 87.316406 483.753906 90.339844 487.1875 93.453125 C 490.621094 96.566406 493.976562 99.757812 497.253906 103.035156 C 500.53125 106.3125 503.722656 109.667969 506.835938 113.101562 C 509.945312 116.53125 512.972656 120.039062 515.914062 123.621094 C 518.851562 127.203125 521.703125 130.855469 524.460938 134.578125 C 527.222656 138.300781 529.890625 142.085938 532.464844 145.9375 C 535.039062 149.792969 537.515625 153.707031 539.898438 157.679688 C 542.28125 161.652344 544.5625 165.683594 546.746094 169.769531 C 548.933594 173.855469 551.015625 177.996094 552.996094 182.183594 C 554.976562 186.371094 556.855469 190.605469 558.625 194.886719 C 560.398438 199.167969 562.066406 203.492188 563.628906 207.851562 C 565.1875 212.214844 566.640625 216.613281 567.988281 221.046875 C 569.332031 225.480469 570.566406 229.945312 571.695312 234.441406 C 572.820312 238.9375 573.835938 243.457031 574.738281 248 C 575.640625 252.542969 576.433594 257.109375 577.113281 261.691406 C 577.792969 266.273438 578.359375 270.871094 578.816406 275.484375 C 579.269531 280.09375 579.609375 284.714844 579.835938 289.34375 C 580.066406 293.96875 580.179688 298.601562 580.179688 303.234375 Z M 580.179688 303.234375 "/></g><g clip-rule="nonzero" clip-path="url(#336fbaa774)"><path style=" stroke:none;fill-rule:evenodd;fill:#677079;fill-opacity:1;" d="M 495.761719 504.886719 C 492.464844 508.136719 489.089844 511.304688 485.640625 514.386719 C 482.1875 517.472656 478.660156 520.46875 475.0625 523.378906 C 471.460938 526.292969 467.792969 529.113281 464.054688 531.84375 C 460.316406 534.574219 456.515625 537.214844 452.644531 539.757812 C 448.777344 542.304688 444.851562 544.75 440.863281 547.105469 C 436.875 549.457031 432.832031 551.707031 428.734375 553.863281 C 424.636719 556.015625 420.488281 558.066406 416.289062 560.019531 C 412.089844 561.96875 407.847656 563.8125 403.558594 565.554688 C 399.269531 567.296875 394.9375 568.933594 390.570312 570.464844 C 386.199219 571.992188 381.796875 573.414062 377.355469 574.726562 C 372.917969 576.039062 368.449219 577.246094 363.949219 578.339844 C 359.453125 579.433594 354.929688 580.417969 350.382812 581.289062 C 345.835938 582.160156 341.269531 582.921875 336.6875 583.570312 C 332.101562 584.21875 327.503906 584.753906 322.894531 585.175781 C 318.285156 585.597656 313.667969 585.90625 309.042969 586.105469 C 304.417969 586.300781 299.789062 586.382812 295.160156 586.351562 C 290.53125 586.320312 285.902344 586.175781 281.28125 585.917969 C 276.660156 585.660156 272.046875 585.289062 267.441406 584.804688 C 262.835938 584.320312 258.25 583.726562 253.671875 583.015625 C 249.097656 582.308594 244.542969 581.484375 240.007812 580.554688 C 235.476562 579.621094 230.964844 578.578125 226.480469 577.421875 C 222 576.269531 217.546875 575.003906 213.125 573.632812 C 208.703125 572.261719 204.320312 570.78125 199.96875 569.191406 C 195.621094 567.605469 191.3125 565.910156 187.046875 564.113281 C 182.78125 562.3125 178.5625 560.410156 174.390625 558.40625 C 170.21875 556.398438 166.097656 554.292969 162.027344 552.085938 C 157.960938 549.875 153.945312 547.570312 149.992188 545.164062 C 146.035156 542.761719 142.140625 540.261719 138.308594 537.664062 C 134.472656 535.066406 130.707031 532.378906 127.007812 529.597656 C 123.304688 526.816406 119.675781 523.949219 116.113281 520.988281 C 112.554688 518.03125 109.066406 514.984375 105.65625 511.855469 C 102.246094 508.726562 98.914062 505.511719 95.660156 502.21875 C 97.332031 497.59375 99.394531 493.148438 101.84375 488.882812 C 104.292969 484.617188 107.097656 480.597656 110.25 476.820312 C 113.40625 473.046875 116.863281 469.574219 120.625 466.402344 C 124.386719 463.234375 128.394531 460.414062 132.648438 457.945312 C 144.25 449.371094 156.695312 442.277344 169.988281 436.671875 C 149.847656 367.464844 204.59375 333.445312 225.539062 323.648438 C 225.539062 355.597656 255.457031 334.398438 292.582031 334.800781 C 323.148438 335.140625 383.59375 365.90625 383.59375 325.316406 C 417.222656 335.265625 453.871094 399.351562 428.648438 438.722656 C 439.019531 443.792969 448.734375 449.910156 457.792969 457.066406 C 462.175781 459.855469 466.300781 462.988281 470.160156 466.46875 C 474.023438 469.945312 477.566406 473.71875 480.796875 477.789062 C 484.03125 481.859375 486.902344 486.167969 489.414062 490.71875 C 491.921875 495.265625 494.039062 499.992188 495.761719 504.894531 Z M 495.761719 504.886719 "/></g><path style=" stroke:none;fill-rule:evenodd;fill:#f9dca4;fill-opacity:1;" d="M 234.125 374.519531 L 370.832031 375.34375 L 370.832031 406.835938 L 370.765625 407.324219 C 370.671875 408.75 370.457031 410.164062 370.125 411.554688 L 369.667969 414.679688 L 369.390625 415.332031 C 360.542969 461.820312 321.8125 479.789062 297.898438 492.304688 C 272.699219 478.578125 237.074219 453.851562 234.242188 410.097656 L 234.125 409.558594 L 234.125 407.726562 C 234.105469 407.09375 234.09375 406.460938 234.089844 405.828125 C 234.089844 406.160156 234.117188 406.46875 234.125 406.800781 Z M 234.125 374.519531 "/><path style=" stroke:none;fill-rule:evenodd;fill:#000000;fill-opacity:0.11;" d="M 370.839844 373.941406 L 370.839844 410.640625 C 370.8125 414.046875 370.523438 417.429688 369.96875 420.792969 C 369.273438 424.960938 368.113281 428.996094 366.488281 432.894531 C 318.988281 468.765625 243.304688 439.34375 231.21875 378.074219 Z M 370.839844 373.941406 "/><path style=" stroke:none;fill-rule:evenodd;fill:#f9dca4;fill-opacity:1;" d="M 179.808594 251.328125 C 134.546875 262.964844 173.027344 318.125 201.496094 317.886719 C 195.757812 307.601562 191.0625 296.859375 187.414062 285.664062 C 183.765625 274.464844 181.230469 263.019531 179.808594 251.328125 Z M 179.808594 251.328125 "/><path style=" stroke:none;fill-rule:evenodd;fill:#f9dca4;fill-opacity:1;" d="M 415.589844 251.328125 C 460.855469 262.964844 422.371094 318.125 393.894531 317.875 C 399.636719 307.59375 404.332031 296.855469 407.980469 285.660156 C 411.632812 274.460938 414.167969 263.019531 415.589844 251.328125 Z M 415.589844 251.328125 "/><path style=" stroke:none;fill-rule:evenodd;fill:#ffe8be;fill-opacity:1;" d="M 295.523438 124.207031 C 483.566406 124.207031 410.285156 421.496094 295.523438 421.496094 C 187.128906 421.496094 107.480469 124.207031 295.523438 124.207031 Z M 295.523438 124.207031 "/><path style=" stroke:none;fill-rule:evenodd;fill:#8a5c42;fill-opacity:1;" d="M 206.773438 222.648438 C 207.175781 223.089844 207.546875 223.546875 207.898438 224.027344 C 208.246094 224.507812 208.566406 225.003906 208.859375 225.519531 C 209.152344 226.035156 209.414062 226.566406 209.648438 227.113281 C 209.882812 227.65625 210.085938 228.214844 210.253906 228.78125 C 210.425781 229.351562 210.566406 229.925781 210.671875 230.507812 C 210.78125 231.09375 210.855469 231.679688 210.894531 232.273438 C 210.9375 232.863281 210.945312 233.457031 210.921875 234.050781 C 210.894531 234.640625 210.839844 235.230469 210.746094 235.816406 C 210.65625 236.402344 210.535156 236.984375 210.378906 237.554688 C 210.222656 238.128906 210.035156 238.691406 209.816406 239.242188 C 209.597656 239.792969 209.351562 240.332031 209.074219 240.855469 C 208.792969 241.378906 208.488281 241.886719 208.152344 242.375 C 207.816406 242.863281 207.457031 243.332031 207.070312 243.78125 C 206.683594 244.230469 206.269531 244.660156 205.835938 245.0625 C 205.402344 245.464844 204.945312 245.84375 204.46875 246.195312 C 203.988281 246.546875 203.496094 246.871094 202.980469 247.167969 C 189.695312 258.101562 189.210938 296.214844 189.210938 296.214844 C 184.078125 291.121094 184.199219 263.835938 173.074219 248.066406 C 161.949219 232.296875 154.457031 121.960938 216.660156 81.839844 C 214.75 84.085938 213.113281 86.519531 211.753906 89.136719 C 210.394531 91.757812 209.34375 94.496094 208.601562 97.351562 C 207.863281 100.207031 207.449219 103.109375 207.367188 106.058594 C 207.285156 109.007812 207.535156 111.929688 208.113281 114.824219 C 208.113281 114.824219 251.324219 52.855469 323.011719 54.644531 C 320.167969 56.191406 317.519531 58.023438 315.0625 60.128906 C 312.609375 62.238281 310.398438 64.578125 308.433594 67.152344 C 306.472656 69.722656 304.796875 72.472656 303.414062 75.398438 C 302.03125 78.324219 300.96875 81.363281 300.222656 84.515625 C 300.222656 84.515625 362.894531 58.65625 415.125 89.414062 C 401.445312 93.195312 388.785156 99.144531 377.144531 107.253906 C 402.507812 107.953125 427.015625 112.660156 445.496094 129.097656 C 444.503906 129.417969 443.53125 129.785156 442.578125 130.199219 C 441.621094 130.617188 440.691406 131.078125 439.78125 131.585938 C 438.871094 132.097656 437.992188 132.648438 437.136719 133.246094 C 436.28125 133.84375 435.460938 134.480469 434.671875 135.160156 C 433.882812 135.839844 433.128906 136.558594 432.410156 137.3125 C 431.691406 138.066406 431.011719 138.855469 430.371094 139.675781 C 429.734375 140.5 429.136719 141.351562 428.582031 142.234375 C 428.027344 143.117188 427.519531 144.023438 427.054688 144.957031 C 426.59375 145.890625 426.175781 146.84375 425.808594 147.816406 C 425.441406 148.792969 425.121094 149.78125 424.851562 150.789062 C 424.582031 151.796875 424.363281 152.8125 424.199219 153.839844 C 424.03125 154.867188 423.914062 155.902344 423.851562 156.941406 C 423.785156 157.980469 423.773438 159.023438 423.8125 160.0625 C 423.855469 161.105469 423.945312 162.140625 424.089844 163.171875 C 424.234375 164.203125 424.425781 165.226562 424.671875 166.238281 C 424.917969 167.25 425.214844 168.25 425.558594 169.230469 C 433.402344 201.328125 434.136719 231.1875 426.539062 247.242188 C 418.945312 263.296875 415.363281 252.933594 410.605469 286.59375 C 410.488281 287.734375 410.242188 288.839844 409.871094 289.921875 C 409.496094 291 409.003906 292.023438 408.390625 292.988281 C 407.777344 293.953125 407.0625 294.835938 406.246094 295.636719 C 405.429688 296.433594 404.53125 297.128906 403.550781 297.71875 C 403.367188 300.15625 407.050781 263.304688 397.550781 253.492188 C 388.058594 243.6875 394.023438 231.636719 397.816406 224.507812 C 424.296875 174.785156 344.992188 152.253906 301.644531 152.308594 C 264.050781 152.355469 173.367188 169.441406 206.773438 222.648438 Z M 206.773438 222.648438 "/><path style=" stroke:none;fill-rule:evenodd;fill:#434955;fill-opacity:1;" d="M 195.257812 470.5625 C 195.53125 470.910156 290.714844 594.101562 402.605469 468.730469 C 389.09375 505.855469 330.800781 535.34375 297.457031 535.25 C 233.777344 535.066406 198.535156 483.941406 195.257812 470.5625 Z M 195.257812 470.5625 "/><path style=" stroke:none;fill-rule:evenodd;fill:#e6e6e6;fill-opacity:1;" d="M 346.863281 581.988281 C 343.105469 582.648438 339.328125 583.226562 335.527344 583.75 L 335.527344 501.863281 C 335.5625 501.523438 335.628906 501.191406 335.726562 500.863281 C 335.828125 500.535156 335.957031 500.222656 336.117188 499.921875 C 336.277344 499.617188 336.464844 499.335938 336.679688 499.070312 C 336.894531 498.804688 337.132812 498.5625 337.394531 498.34375 C 337.65625 498.125 337.9375 497.933594 338.238281 497.769531 C 338.535156 497.605469 338.847656 497.472656 339.175781 497.367188 C 339.5 497.265625 339.832031 497.191406 340.171875 497.152344 C 340.511719 497.113281 340.847656 497.109375 341.191406 497.132812 C 341.53125 497.105469 341.871094 497.113281 342.210938 497.152344 C 342.550781 497.191406 342.882812 497.261719 343.207031 497.363281 C 343.535156 497.46875 343.847656 497.601562 344.148438 497.765625 C 344.445312 497.929688 344.726562 498.121094 344.988281 498.339844 C 345.253906 498.558594 345.492188 498.800781 345.707031 499.066406 C 345.921875 499.332031 346.109375 499.617188 346.269531 499.917969 C 346.429688 500.21875 346.5625 500.535156 346.660156 500.863281 C 346.761719 501.1875 346.828125 501.523438 346.863281 501.863281 Z M 256.882812 583.511719 C 253.085938 582.964844 249.308594 582.355469 245.550781 581.679688 L 245.550781 501.863281 C 245.585938 501.523438 245.652344 501.191406 245.75 500.863281 C 245.851562 500.535156 245.980469 500.222656 246.140625 499.921875 C 246.300781 499.617188 246.488281 499.335938 246.703125 499.070312 C 246.917969 498.804688 247.15625 498.5625 247.417969 498.34375 C 247.679688 498.125 247.960938 497.933594 248.261719 497.769531 C 248.558594 497.605469 248.871094 497.472656 249.195312 497.367188 C 249.523438 497.265625 249.855469 497.191406 250.195312 497.152344 C 250.53125 497.113281 250.871094 497.109375 251.214844 497.132812 C 251.554688 497.105469 251.894531 497.113281 252.234375 497.148438 C 252.574219 497.1875 252.90625 497.257812 253.234375 497.363281 C 253.5625 497.464844 253.875 497.597656 254.175781 497.761719 C 254.472656 497.925781 254.757812 498.117188 255.019531 498.339844 C 255.28125 498.558594 255.523438 498.800781 255.738281 499.066406 C 255.953125 499.328125 256.140625 499.613281 256.300781 499.914062 C 256.464844 500.21875 256.59375 500.53125 256.691406 500.859375 C 256.792969 501.1875 256.859375 501.523438 256.894531 501.863281 Z M 256.882812 583.511719 "/></g></svg>