<svg xmlns="http://www.w3.org/2000/svg" xmlns:xlink="http://www.w3.org/1999/xlink" width="250" zoomAndPan="magnify" viewBox="0 0 187.5 187.499992" height="250" preserveAspectRatio="xMidYMid meet" version="1.2"><defs><clipPath id="148a146139"><path d="M 9.863281 8.578125 L 172.929688 8.578125 L 172.929688 171.644531 L 9.863281 171.644531 Z M 9.863281 8.578125 "/></clipPath></defs><g id="60d9688b78"><path style=" stroke:none;fill-rule:nonzero;fill:#ffffff;fill-opacity:1;" d="M 0 0 L 187 0 L 187 187 L 0 187 Z M 0 0 "/><path style=" stroke:none;fill-rule:nonzero;fill:#ffffff;fill-opacity:1;" d="M 0 0 L 187 0 L 187 187 L 0 187 Z M 0 0 "/><g clip-rule="nonzero" clip-path="url(#148a146139)"><path style=" stroke:none;fill-rule:nonzero;fill:#d62028;fill-opacity:1;" d="M 152.113281 16.503906 L 141.933594 16.503906 L 141.933594 15.746094 C 141.933594 11.796875 138.722656 8.578125 134.773438 8.578125 C 130.828125 8.578125 127.609375 11.796875 127.609375 15.746094 L 127.609375 16.503906 L 113.019531 16.503906 L 113.019531 15.746094 C 113.019531 11.796875 109.804688 8.578125 105.851562 8.578125 C 101.902344 8.578125 98.695312 11.796875 98.695312 15.746094 L 98.695312 16.503906 L 84.109375 16.503906 L 84.109375 15.746094 C 84.109375 11.796875 80.890625 8.578125 76.941406 8.578125 C 72.988281 8.578125 69.773438 11.796875 69.773438 15.746094 L 69.773438 16.503906 L 55.1875 16.503906 L 55.1875 15.746094 C 55.1875 11.796875 51.972656 8.578125 48.027344 8.578125 C 44.082031 8.578125 40.859375 11.796875 40.859375 15.746094 L 40.859375 16.503906 L 30.679688 16.503906 C 19.199219 16.503906 9.859375 25.839844 9.859375 37.316406 L 9.859375 112.5625 C 9.859375 120.199219 14.113281 127.234375 20.800781 130.871094 C 21.363281 138.347656 24.507812 145.429688 29.609375 150.898438 L 27.734375 150.898438 C 26.457031 150.898438 25.421875 151.933594 25.421875 153.210938 L 25.421875 169.332031 C 25.421875 170.609375 26.457031 171.644531 27.734375 171.644531 L 79.570312 171.644531 C 80.847656 171.644531 81.882812 170.609375 81.882812 169.332031 L 81.882812 153.210938 C 81.882812 151.933594 80.847656 150.898438 79.570312 150.898438 L 77.6875 150.898438 C 82.214844 146.042969 85.203125 139.917969 86.207031 133.375 L 99 133.375 C 97.910156 136.214844 97.3125 139.296875 97.3125 142.515625 C 97.3125 156.679688 108.832031 168.199219 122.996094 168.199219 C 137.160156 168.199219 148.679688 156.679688 148.679688 142.515625 C 148.679688 140.847656 148.515625 139.183594 148.195312 137.546875 L 152.375 133.367188 C 163.734375 133.226562 172.933594 123.949219 172.933594 112.5625 L 172.933594 37.316406 C 172.933594 25.839844 163.59375 16.503906 152.113281 16.503906 Z M 132.230469 15.746094 C 132.230469 14.34375 133.371094 13.203125 134.773438 13.203125 C 136.179688 13.203125 137.3125 14.34375 137.3125 15.746094 L 137.3125 23.71875 C 137.3125 25.125 136.171875 26.265625 134.773438 26.265625 C 133.375 26.265625 132.230469 25.125 132.230469 23.71875 Z M 103.316406 15.746094 C 103.316406 14.34375 104.453125 13.203125 105.851562 13.203125 C 107.25 13.203125 108.398438 14.34375 108.398438 15.746094 L 108.398438 23.71875 C 108.398438 25.097656 107.234375 26.265625 105.851562 26.265625 C 104.453125 26.265625 103.316406 25.125 103.316406 23.71875 Z M 74.394531 15.746094 C 74.394531 14.34375 75.535156 13.203125 76.941406 13.203125 C 78.34375 13.203125 79.484375 14.34375 79.484375 15.746094 L 79.484375 23.71875 C 79.484375 25.097656 78.320312 26.265625 76.941406 26.265625 C 75.5625 26.265625 74.394531 25.097656 74.394531 23.71875 Z M 45.480469 15.746094 C 45.480469 14.34375 46.625 13.203125 48.027344 13.203125 C 49.429688 13.203125 50.5625 14.34375 50.5625 15.746094 L 50.5625 23.71875 C 50.5625 25.125 49.425781 26.265625 48.027344 26.265625 C 46.628906 26.265625 45.480469 25.125 45.480469 23.71875 Z M 77.257812 167.019531 L 30.042969 167.019531 L 30.042969 155.523438 L 77.257812 155.523438 Z M 36.457031 150.898438 C 29.71875 145.722656 25.621094 137.773438 25.34375 129.351562 C 25.34375 129.3125 25.34375 129.273438 25.339844 129.234375 C 25.332031 128.972656 25.328125 128.707031 25.328125 128.441406 L 25.328125 111.703125 C 25.328125 109.597656 27.039062 107.886719 29.144531 107.886719 C 31.25 107.886719 32.960938 109.597656 32.960938 111.703125 L 32.960938 122.417969 C 32.960938 123.691406 33.996094 124.726562 35.273438 124.726562 C 36.550781 124.726562 37.585938 123.691406 37.585938 122.417969 L 37.585938 101.289062 C 37.585938 99.183594 39.292969 97.472656 41.390625 97.472656 C 43.492188 97.472656 45.210938 99.183594 45.210938 101.289062 L 45.210938 122.417969 C 45.210938 123.691406 46.246094 124.726562 47.519531 124.726562 C 48.796875 124.726562 49.832031 123.691406 49.832031 122.417969 L 49.832031 88.421875 C 49.832031 86.316406 51.542969 84.605469 53.648438 84.605469 C 55.753906 84.605469 57.46875 86.316406 57.46875 88.421875 L 57.46875 122.417969 C 57.46875 123.691406 58.5 124.726562 59.777344 124.726562 C 61.054688 124.726562 62.089844 123.691406 62.089844 122.417969 L 62.089844 72.496094 C 62.089844 70.390625 63.796875 68.679688 65.898438 68.679688 C 67.996094 68.679688 69.714844 70.390625 69.714844 72.496094 L 69.714844 122.417969 C 69.714844 123.691406 70.75 124.726562 72.027344 124.726562 C 73.300781 124.726562 74.335938 123.691406 74.335938 122.417969 L 74.335938 108.023438 C 74.335938 105.921875 76.050781 104.207031 78.152344 104.207031 C 80.257812 104.207031 81.960938 105.921875 81.960938 108.023438 L 81.960938 128.441406 C 81.960938 137.195312 77.820312 145.535156 70.84375 150.898438 L 36.453125 150.898438 Z M 144.058594 142.515625 C 144.058594 154.128906 134.609375 163.578125 122.996094 163.578125 C 111.378906 163.578125 101.933594 154.128906 101.933594 142.515625 C 101.933594 130.902344 111.378906 121.460938 122.996094 121.460938 C 128.6875 121.460938 134.046875 123.734375 137.996094 127.75 L 129.273438 136.46875 L 123.683594 130.878906 C 122.351562 129.546875 120.574219 128.8125 118.683594 128.8125 L 118.671875 128.8125 C 116.785156 128.816406 115.011719 129.546875 113.6875 130.878906 C 112.355469 132.203125 111.625 133.972656 111.621094 135.863281 C 111.617188 137.761719 112.351562 139.539062 113.6875 140.875 L 125.128906 152.316406 C 126.273438 153.460938 127.777344 154.03125 129.277344 154.03125 C 130.777344 154.03125 132.28125 153.460938 133.425781 152.316406 L 144.039062 141.703125 C 144.050781 141.972656 144.058594 142.246094 144.058594 142.515625 Z M 151.957031 127.246094 L 149.777344 129.425781 C 149.777344 129.425781 149.777344 129.429688 149.777344 129.429688 L 130.15625 149.050781 C 129.671875 149.535156 128.882812 149.535156 128.398438 149.050781 L 116.957031 137.605469 C 116.496094 137.144531 116.242188 136.527344 116.242188 135.871094 C 116.246094 135.214844 116.496094 134.605469 116.953125 134.152344 C 116.953125 134.148438 116.957031 134.144531 116.960938 134.144531 C 117.414062 133.6875 118.023438 133.433594 118.679688 133.433594 L 118.683594 133.433594 C 119.339844 133.433594 119.957031 133.6875 120.414062 134.148438 L 127.640625 141.371094 C 128.542969 142.273438 130.003906 142.273438 130.90625 141.371094 L 148.5 123.789062 C 148.957031 123.328125 149.570312 123.078125 150.226562 123.078125 C 150.882812 123.078125 151.496094 123.328125 151.960938 123.792969 C 152.417969 124.246094 152.667969 124.855469 152.667969 125.511719 C 152.671875 126.171875 152.417969 126.789062 151.957031 127.246094 Z M 168.308594 112.5625 C 168.308594 119.851562 163.464844 126.03125 156.820312 128.050781 C 157.128906 127.25 157.292969 126.390625 157.292969 125.507812 C 157.289062 123.613281 156.554688 121.84375 155.226562 120.519531 C 153.894531 119.1875 152.117188 118.453125 150.226562 118.453125 C 148.335938 118.453125 146.5625 119.1875 145.230469 120.519531 L 141.269531 124.480469 C 136.457031 119.597656 129.929688 116.839844 122.996094 116.839844 C 113.894531 116.839844 105.894531 121.597656 101.328125 128.75 L 86.582031 128.75 C 86.582031 128.648438 86.585938 128.546875 86.585938 128.441406 L 86.585938 108.023438 C 86.585938 103.371094 82.804688 99.585938 78.15625 99.585938 C 76.785156 99.585938 75.484375 99.914062 74.339844 100.5 L 74.339844 72.496094 C 74.339844 67.84375 70.554688 64.058594 65.898438 64.058594 C 61.246094 64.058594 57.46875 67.84375 57.46875 72.496094 L 57.46875 80.898438 C 56.320312 80.3125 55.023438 79.984375 53.652344 79.984375 C 48.996094 79.984375 45.210938 83.769531 45.210938 88.421875 L 45.210938 93.761719 C 44.0625 93.179688 42.765625 92.847656 41.394531 92.847656 C 36.746094 92.847656 32.964844 96.632812 32.964844 101.289062 L 32.964844 104.175781 C 31.816406 103.59375 30.519531 103.261719 29.144531 103.261719 C 24.492188 103.261719 20.707031 107.046875 20.707031 111.703125 L 20.707031 125.292969 C 16.839844 122.25 14.484375 117.570312 14.484375 112.5625 L 14.484375 37.316406 C 14.484375 28.390625 21.75 21.128906 30.679688 21.128906 L 40.859375 21.128906 L 40.859375 23.71875 C 40.859375 27.671875 44.074219 30.886719 48.027344 30.886719 C 51.980469 30.886719 55.1875 27.671875 55.1875 23.71875 L 55.1875 21.128906 L 69.773438 21.128906 L 69.773438 23.71875 C 69.773438 27.671875 72.988281 30.886719 76.941406 30.886719 C 80.890625 30.886719 84.109375 27.671875 84.109375 23.71875 L 84.109375 21.128906 L 98.695312 21.128906 L 98.695312 23.71875 C 98.695312 27.671875 101.90625 30.886719 105.851562 30.886719 C 109.800781 30.886719 113.019531 27.671875 113.019531 23.71875 L 113.019531 21.128906 L 127.609375 21.128906 L 127.609375 23.71875 C 127.609375 27.671875 130.824219 30.886719 134.773438 30.886719 C 138.726562 30.886719 141.933594 27.671875 141.933594 23.71875 L 141.933594 21.128906 L 152.113281 21.128906 C 161.042969 21.128906 168.308594 28.390625 168.308594 37.316406 Z M 38.117188 61.71875 L 27.84375 61.71875 C 24.980469 61.71875 22.652344 64.050781 22.652344 66.921875 L 22.652344 77.195312 C 22.652344 80.058594 24.980469 82.386719 27.84375 82.386719 L 38.117188 82.386719 C 40.980469 82.386719 43.3125 80.058594 43.3125 77.195312 L 43.3125 66.921875 C 43.3125 64.050781 40.980469 61.71875 38.117188 61.71875 Z M 38.6875 77.195312 C 38.6875 77.503906 38.425781 77.765625 38.117188 77.765625 L 27.84375 77.765625 C 27.539062 77.765625 27.273438 77.5 27.273438 77.195312 L 27.273438 66.921875 C 27.273438 66.605469 27.535156 66.339844 27.84375 66.339844 L 38.117188 66.339844 C 38.425781 66.339844 38.6875 66.605469 38.6875 66.921875 Z M 97.730469 61.71875 L 87.457031 61.71875 C 84.59375 61.71875 82.265625 64.050781 82.265625 66.921875 L 82.265625 77.195312 C 82.265625 80.058594 84.59375 82.386719 87.457031 82.386719 L 97.730469 82.386719 C 100.597656 82.386719 102.933594 80.058594 102.933594 77.195312 L 102.933594 66.921875 C 102.933594 64.050781 100.601562 61.71875 97.730469 61.71875 Z M 98.3125 77.195312 C 98.3125 77.503906 98.046875 77.765625 97.730469 77.765625 L 87.457031 77.765625 C 87.152344 77.765625 86.886719 77.5 86.886719 77.195312 L 86.886719 66.921875 C 86.886719 66.605469 87.148438 66.339844 87.457031 66.339844 L 97.730469 66.339844 C 98.046875 66.339844 98.3125 66.605469 98.3125 66.921875 Z M 127.839844 61.71875 L 117.566406 61.71875 C 114.699219 61.71875 112.363281 64.050781 112.363281 66.921875 L 112.363281 77.195312 C 112.363281 80.058594 114.699219 82.386719 117.566406 82.386719 L 127.839844 82.386719 C 130.703125 82.386719 133.035156 80.058594 133.035156 77.195312 L 133.035156 66.921875 C 133.035156 64.050781 130.703125 61.71875 127.839844 61.71875 Z M 128.414062 77.195312 C 128.414062 77.5 128.144531 77.765625 127.839844 77.765625 L 117.566406 77.765625 C 117.253906 77.765625 116.988281 77.503906 116.988281 77.195312 L 116.988281 66.921875 C 116.988281 66.605469 117.253906 66.339844 117.566406 66.339844 L 127.839844 66.339844 C 128.152344 66.339844 128.414062 66.605469 128.414062 66.921875 Z M 157.941406 61.71875 L 147.667969 61.71875 C 144.804688 61.71875 142.476562 64.050781 142.476562 66.921875 L 142.476562 77.195312 C 142.476562 80.058594 144.804688 82.386719 147.667969 82.386719 L 157.941406 82.386719 C 160.804688 82.386719 163.136719 80.058594 163.136719 77.195312 L 163.136719 66.921875 C 163.136719 64.050781 160.804688 61.71875 157.941406 61.71875 Z M 158.511719 77.195312 C 158.511719 77.503906 158.25 77.765625 157.941406 77.765625 L 147.667969 77.765625 C 147.363281 77.765625 147.097656 77.5 147.097656 77.195312 L 147.097656 66.921875 C 147.097656 66.605469 147.359375 66.339844 147.667969 66.339844 L 157.941406 66.339844 C 158.25 66.339844 158.511719 66.605469 158.511719 66.921875 Z M 127.839844 92.128906 L 117.566406 92.128906 C 114.699219 92.128906 112.363281 94.457031 112.363281 97.320312 L 112.363281 107.59375 C 112.363281 110.457031 114.699219 112.789062 117.566406 112.789062 L 127.839844 112.789062 C 130.703125 112.789062 133.035156 110.457031 133.035156 107.59375 L 133.035156 97.320312 C 133.035156 94.457031 130.703125 92.128906 127.839844 92.128906 Z M 128.414062 107.59375 C 128.414062 107.898438 128.144531 108.164062 127.839844 108.164062 L 117.566406 108.164062 C 117.253906 108.164062 116.988281 107.90625 116.988281 107.59375 L 116.988281 97.320312 C 116.988281 97.011719 117.253906 96.75 117.566406 96.75 L 127.839844 96.75 C 128.152344 96.75 128.414062 97.011719 128.414062 97.320312 Z M 157.941406 92.128906 L 147.667969 92.128906 C 144.804688 92.128906 142.476562 94.457031 142.476562 97.320312 L 142.476562 107.59375 C 142.476562 110.457031 144.804688 112.789062 147.667969 112.789062 L 157.941406 112.789062 C 160.804688 112.789062 163.136719 110.457031 163.136719 107.59375 L 163.136719 97.320312 C 163.136719 94.457031 160.804688 92.128906 157.941406 92.128906 Z M 158.511719 107.59375 C 158.511719 107.90625 158.25 108.164062 157.941406 108.164062 L 147.667969 108.164062 C 147.363281 108.164062 147.097656 107.898438 147.097656 107.59375 L 147.097656 97.320312 C 147.097656 97.011719 147.359375 96.75 147.667969 96.75 L 157.941406 96.75 C 158.257812 96.75 158.511719 97.007812 158.511719 97.320312 Z M 140.070312 38.511719 L 140.070312 54.335938 C 140.070312 55.550781 139.105469 56.515625 137.882812 56.515625 L 137.742188 56.515625 C 136.691406 56.515625 136.066406 56.011719 135.476562 55.242188 L 126.726562 43.769531 L 126.726562 54.417969 C 126.726562 55.609375 125.765625 56.582031 124.566406 56.582031 C 123.378906 56.582031 122.40625 55.609375 122.40625 54.417969 L 122.40625 38.605469 C 122.40625 37.378906 123.378906 36.417969 124.59375 36.417969 L 125.054688 36.417969 C 126.101562 36.417969 126.726562 36.921875 127.328125 37.691406 L 135.757812 48.769531 L 135.757812 38.511719 C 135.757812 37.324219 136.722656 36.359375 137.910156 36.359375 C 139.105469 36.359375 140.070312 37.324219 140.070312 38.511719 Z M 143.964844 46.523438 L 143.964844 46.464844 C 143.964844 40.816406 148.359375 36.191406 154.386719 36.191406 C 157.390625 36.191406 159.382812 36.867188 161.171875 38.121094 C 161.601562 38.429688 162.078125 39.027344 162.078125 39.878906 C 162.078125 41.078125 161.113281 42.039062 159.917969 42.039062 C 159.300781 42.039062 158.898438 41.804688 158.589844 41.582031 C 157.390625 40.730469 156.117188 40.214844 154.246094 40.214844 C 151.066406 40.214844 148.539062 43.03125 148.539062 46.410156 L 148.539062 46.464844 C 148.539062 50.105469 151.035156 52.773438 154.554688 52.773438 C 156.144531 52.773438 157.570312 52.371094 158.671875 51.574219 L 158.671875 48.738281 L 155.714844 48.738281 C 154.667969 48.738281 153.816406 47.917969 153.816406 46.867188 C 153.816406 45.8125 154.667969 44.960938 155.714844 44.960938 L 160.710938 44.960938 C 161.9375 44.960938 162.902344 45.921875 162.902344 47.148438 L 162.902344 51.976562 C 162.902344 53.25 162.425781 54.136719 161.367188 54.757812 C 159.75 55.757812 157.390625 56.75 154.414062 56.75 C 148.222656 56.75 143.964844 52.398438 143.964844 46.523438 Z M 113.066406 54.390625 L 113.066406 38.542969 C 113.066406 37.324219 114.03125 36.359375 115.257812 36.359375 C 116.472656 36.359375 117.4375 37.324219 117.4375 38.542969 L 117.4375 54.390625 C 117.4375 55.609375 116.472656 56.582031 115.257812 56.582031 C 114.03125 56.582031 113.066406 55.609375 113.066406 54.390625 Z M 54.089844 36.191406 C 47.953125 36.191406 43.496094 40.816406 43.496094 46.464844 L 43.496094 46.523438 C 43.496094 52.175781 47.894531 56.75 54.035156 56.75 C 60.171875 56.75 64.625 52.117188 64.625 46.464844 L 64.625 46.410156 C 64.625 40.757812 60.21875 36.191406 54.089844 36.191406 Z M 60.050781 46.523438 C 60.050781 49.929688 57.609375 52.71875 54.089844 52.71875 C 50.570312 52.71875 48.0625 49.871094 48.0625 46.464844 L 48.0625 46.410156 C 48.0625 43.003906 50.507812 40.214844 54.035156 40.214844 C 57.5625 40.214844 60.050781 43.058594 60.050781 46.464844 Z M 88.757812 46.464844 L 88.757812 46.410156 C 88.757812 40.757812 84.359375 36.191406 78.222656 36.191406 C 72.082031 36.191406 67.628906 40.816406 67.628906 46.464844 L 67.628906 46.523438 C 67.628906 52.175781 72.035156 56.75 78.164062 56.75 C 84.292969 56.75 88.757812 52.117188 88.757812 46.464844 Z M 84.191406 46.523438 C 84.191406 49.929688 81.75 52.71875 78.222656 52.71875 C 74.695312 52.71875 72.203125 49.871094 72.203125 46.464844 L 72.203125 46.410156 C 72.203125 43.003906 74.648438 40.214844 78.164062 40.214844 C 81.683594 40.214844 84.191406 43.058594 84.191406 46.464844 Z M 108.667969 52.914062 C 109.003906 53.34375 109.257812 53.792969 109.257812 54.449219 C 109.257812 55.664062 108.324219 56.582031 107.050781 56.582031 C 106.199219 56.582031 105.683594 56.152344 105.195312 55.523438 L 99.519531 48.085938 L 97.019531 50.414062 L 97.019531 54.390625 C 97.019531 55.609375 96.054688 56.582031 94.839844 56.582031 C 93.613281 56.582031 92.648438 55.609375 92.648438 54.390625 L 92.648438 38.539062 C 92.648438 37.324219 93.613281 36.359375 94.839844 36.359375 C 96.054688 36.359375 97.019531 37.324219 97.019531 38.539062 L 97.019531 45.222656 L 105.085938 37.210938 C 105.628906 36.667969 106.171875 36.359375 106.9375 36.359375 C 108.152344 36.359375 108.949219 37.296875 108.949219 38.371094 C 108.949219 39.054688 108.640625 39.570312 108.152344 40.019531 L 102.558594 45.25 Z M 26.054688 56.402344 L 33.328125 56.402344 C 37.816406 56.402344 40.765625 54.585938 40.765625 50.957031 L 40.765625 50.902344 C 40.765625 48.226562 39.351562 46.898438 37.050781 46.015625 C 38.472656 45.222656 39.660156 43.96875 39.660156 41.722656 L 39.660156 41.667969 C 39.660156 40.308594 39.210938 39.195312 38.296875 38.289062 C 37.164062 37.15625 35.375 36.527344 33.101562 36.527344 L 26.054688 36.527344 C 24.839844 36.527344 23.875 37.492188 23.875 38.71875 L 23.875 54.222656 C 23.875 55.441406 24.839844 56.402344 26.054688 56.402344 Z M 28.132812 40.367188 L 32.449219 40.367188 C 34.300781 40.367188 35.320312 41.105469 35.320312 42.40625 L 35.320312 42.460938 C 35.320312 43.941406 34.09375 44.566406 32.167969 44.566406 L 28.132812 44.566406 Z M 28.132812 48.199219 L 33.1875 48.199219 C 35.433594 48.199219 36.425781 49.019531 36.425781 50.359375 L 36.425781 50.414062 C 36.425781 51.894531 35.265625 52.578125 33.328125 52.578125 L 28.132812 52.578125 Z M 28.132812 48.199219 "/></g></g></svg>