<svg xmlns="http://www.w3.org/2000/svg" xmlns:xlink="http://www.w3.org/1999/xlink" width="250" zoomAndPan="magnify" viewBox="0 0 187.5 187.499992" height="250" preserveAspectRatio="xMidYMid meet" version="1.2"><defs><clipPath id="7172b2a048"><path d="M 10.078125 5.132812 L 180 5.132812 L 180 177.921875 L 10.078125 177.921875 Z M 10.078125 5.132812 "/></clipPath></defs><g id="bbc1eb5e56"><path style=" stroke:none;fill-rule:nonzero;fill:#ffffff;fill-opacity:1;" d="M 0 0 L 187 0 L 187 187 L 0 187 Z M 0 0 "/><path style=" stroke:none;fill-rule:nonzero;fill:#ffffff;fill-opacity:1;" d="M 0 0 L 187 0 L 187 187 L 0 187 Z M 0 0 "/><path style=" stroke:none;fill-rule:nonzero;fill:#d62028;fill-opacity:1;" d="M 51.09375 113.511719 C 47.59375 110.417969 42.890625 108.972656 38.238281 109.546875 C 30.75 110.464844 24.777344 116.574219 24.042969 124.074219 C 23.660156 127.894531 24.570312 131.582031 26.675781 134.746094 C 29.703125 139.324219 34.785156 142.054688 40.285156 142.054688 C 45.785156 142.054688 50.855469 139.320312 53.894531 134.746094 C 55.664062 132.058594 56.597656 128.941406 56.597656 125.730469 C 56.597656 121.058594 54.589844 116.601562 51.09375 113.511719 Z M 49.40625 131.777344 C 47.363281 134.847656 43.953125 136.679688 40.277344 136.679688 C 36.605469 136.679688 33.179688 134.847656 31.152344 131.777344 C 29.742188 129.65625 29.132812 127.171875 29.390625 124.605469 C 29.886719 119.582031 33.882812 115.5 38.890625 114.886719 C 39.359375 114.828125 39.828125 114.800781 40.292969 114.800781 C 42.972656 114.800781 45.5 115.753906 47.527344 117.542969 C 49.875 119.617188 51.222656 122.605469 51.222656 125.734375 C 51.222656 127.886719 50.59375 129.980469 49.410156 131.777344 Z M 49.40625 131.777344 "/><g clip-rule="nonzero" clip-path="url(#7172b2a048)"><path style=" stroke:none;fill-rule:nonzero;fill:#d62028;fill-opacity:1;" d="M 177.042969 79.515625 L 163.546875 66.019531 C 161.097656 63.570312 157.355469 62.921875 154.238281 64.414062 L 146.574219 68.054688 C 145.507812 68.566406 144.214844 68.339844 143.378906 67.503906 L 117.761719 41.886719 C 116.925781 41.050781 116.699219 39.757812 117.210938 38.691406 L 120.851562 31.019531 C 122.335938 27.898438 121.6875 24.152344 119.238281 21.710938 L 105.746094 8.214844 C 102.648438 5.121094 97.25 5.121094 94.15625 8.214844 L 91.984375 10.386719 C 86.335938 16.035156 83.226562 23.542969 83.226562 31.523438 C 83.226562 39.507812 86.335938 47.011719 91.984375 52.660156 L 94.855469 55.53125 L 42.980469 55.53125 C 41.496094 55.53125 40.292969 56.738281 40.292969 58.222656 L 40.292969 96.042969 C 39.164062 96.042969 38.027344 96.09375 36.890625 96.222656 C 22.808594 97.792969 11.777344 109.199219 10.667969 123.339844 C 10.078125 130.878906 12.324219 138.269531 16.984375 144.15625 C 24.660156 153.839844 30.097656 163.3125 33.648438 173.230469 C 34.359375 175.214844 35.902344 176.773438 37.910156 177.496094 C 38.6875 177.773438 39.476562 177.90625 40.257812 177.90625 C 43.15625 177.90625 45.894531 176.085938 46.949219 173.132812 C 50.433594 163.417969 56.019531 153.679688 63.558594 144.183594 C 67.765625 138.890625 69.988281 132.507812 69.988281 125.730469 C 69.988281 125.007812 69.929688 124.300781 69.875 123.59375 L 129.945312 123.59375 C 131.425781 123.59375 132.632812 122.386719 132.632812 120.902344 L 132.632812 93.300781 C 138.273438 98.929688 145.765625 102.03125 153.742188 102.03125 C 161.71875 102.03125 169.238281 98.921875 174.878906 93.273438 L 177.050781 91.105469 C 180.25 87.90625 180.25 82.714844 177.050781 79.515625 Z M 100.234375 60.910156 L 110.753906 71.429688 L 86.457031 92.695312 L 50.160156 60.910156 L 100.238281 60.910156 Z M 59.339844 140.835938 C 51.4375 150.792969 45.558594 161.046875 41.835938 171.425781 C 41.53125 172.289062 40.5625 172.738281 39.714844 172.433594 C 39.25 172.261719 38.875 171.886719 38.671875 171.316406 C 34.949219 160.9375 29.234375 150.960938 21.191406 140.816406 C 17.371094 135.996094 15.535156 129.941406 16.019531 123.753906 C 16.929688 112.179688 25.953125 102.84375 37.476562 101.558594 C 38.425781 101.449219 39.375 101.398438 40.304688 101.398438 C 46.300781 101.398438 51.964844 103.550781 56.480469 107.59375 C 61.640625 112.207031 64.59375 118.816406 64.59375 125.722656 C 64.59375 131.273438 62.777344 136.496094 59.328125 140.828125 Z M 127.25 118.210938 L 68.976562 118.210938 C 67.507812 112.621094 64.464844 107.511719 60.082031 103.585938 C 56 99.921875 50.996094 97.535156 45.667969 96.554688 L 45.667969 64.121094 L 84.6875 98.285156 C 85.199219 98.726562 85.824219 98.949219 86.457031 98.949219 C 87.089844 98.949219 87.722656 98.726562 88.226562 98.285156 L 114.5625 75.234375 L 127.25 87.917969 Z M 173.238281 87.300781 L 171.066406 89.46875 C 166.441406 94.097656 160.28125 96.648438 153.726562 96.648438 C 147.175781 96.648438 141.023438 94.097656 136.394531 89.46875 L 95.78125 48.855469 C 91.15625 44.230469 88.601562 38.070312 88.601562 31.523438 C 88.601562 24.976562 91.15625 18.820312 95.78125 14.191406 L 97.953125 12.019531 C 98.484375 11.488281 99.191406 11.195312 99.945312 11.195312 C 100.703125 11.195312 101.410156 11.488281 101.941406 12.019531 L 115.433594 25.515625 C 116.273438 26.351562 116.496094 27.644531 115.988281 28.714844 L 112.347656 36.382812 C 110.863281 39.507812 111.507812 43.25 113.957031 45.691406 L 139.574219 71.308594 C 142.015625 73.75 145.757812 74.398438 148.882812 72.921875 L 156.546875 69.28125 C 157.628906 68.769531 158.90625 68.992188 159.746094 69.832031 L 173.238281 83.324219 C 173.769531 83.855469 174.0625 84.5625 174.0625 85.320312 C 174.0625 86.074219 173.769531 86.78125 173.238281 87.3125 Z M 173.238281 87.300781 "/></g></g></svg>