<svg xmlns="http://www.w3.org/2000/svg" xmlns:xlink="http://www.w3.org/1999/xlink" width="800" zoomAndPan="magnify" viewBox="0 0 600 599.999999" height="800" preserveAspectRatio="xMidYMid meet" version="1.2"><defs><clipPath id="69a73a14fa"><path d="M 33 117 L 553 117 L 553 513.765625 L 33 513.765625 Z M 33 117 "/></clipPath></defs><g id="d7053e6cc9"><path style=" stroke:none;fill-rule:nonzero;fill:#fee031;fill-opacity:1;" d="M 556.792969 149.746094 C 552.902344 139.011719 546.328125 129.484375 536.136719 121.96875 C 509.042969 102.242188 469.875 107.609375 438.625 110.160156 C 432.585938 110.699219 426.6875 111.101562 420.648438 111.503906 C 387.65625 113.246094 354.523438 114.992188 321.527344 116.871094 C 282.496094 119.015625 243.597656 121.03125 204.566406 123.175781 C 189.144531 123.980469 173.71875 124.789062 158.292969 125.59375 C 137.101562 126.664062 114.699219 125.191406 94.582031 132.570312 C 59.304688 145.453125 46.160156 180.34375 53.941406 215.367188 C 64.269531 260.855469 74.195312 306.480469 83.851562 352.238281 C 88.546875 374.246094 90.558594 399.609375 106.519531 417.054688 C 130.929688 443.488281 172.375 438.925781 204.703125 436.511719 C 210.199219 436.109375 215.835938 435.839844 221.066406 437.71875 C 225.761719 439.328125 229.917969 442.414062 233.808594 445.5 C 246.414062 455.296875 259.023438 465.09375 271.632812 474.886719 C 292.691406 491.257812 315.222656 504.410156 340.574219 489.246094 C 360.828125 477.035156 373.972656 456.234375 390.070312 439.328125 C 391.007812 438.253906 392.082031 437.179688 393.421875 436.644531 C 394.898438 436.109375 396.507812 436.242188 398.117188 436.375 C 434.199219 439.863281 481.546875 454.761719 513.871094 431.277344 C 527.820312 421.078125 536.402344 404.976562 540.832031 388.203125 C 546.328125 367.269531 546.0625 344.722656 548.207031 323.386719 C 550.621094 299.636719 552.902344 275.886719 555.316406 252.132812 C 558.402344 221.671875 568.191406 180.746094 556.792969 149.746094 Z M 556.792969 149.746094 "/><g clip-rule="nonzero" clip-path="url(#69a73a14fa)"><path style=" stroke:none;fill-rule:nonzero;fill:#333333;fill-opacity:1;" d="M 304.226562 513.535156 C 286.789062 513.535156 270.695312 503.472656 255.402344 491.664062 L 217.578125 462.273438 C 213.957031 459.457031 210.199219 456.503906 206.042969 455.164062 C 201.484375 453.6875 196.25 453.820312 191.289062 454.222656 C 189.679688 454.359375 188.070312 454.492188 186.460938 454.625 C 176.667969 455.429688 166.074219 456.234375 155.476562 456.234375 C 131.332031 456.234375 106.785156 452.078125 89.753906 433.558594 C 75.804688 418.394531 71.914062 398.132812 68.292969 378.539062 C 67.488281 374.515625 66.816406 370.625 66.011719 366.867188 C 56.757812 323.121094 46.695312 277.226562 36.101562 230.125 C 31.941406 211.742188 33.550781 193.089844 40.527344 177.792969 C 48.039062 161.285156 61.585938 149.074219 79.425781 142.5 C 95.519531 136.597656 112.957031 136.195312 129.855469 135.789062 C 134.6875 135.65625 139.648438 135.523438 144.476562 135.253906 L 406.835938 121.164062 C 412.46875 120.894531 418.101562 120.359375 423.601562 119.957031 L 424.675781 119.824219 C 427.222656 119.554688 429.90625 119.417969 432.585938 119.152344 C 462.097656 116.601562 498.847656 113.382812 525.003906 132.4375 C 535.195312 139.816406 542.707031 149.878906 547.132812 162.09375 C 556.523438 187.453125 552.230469 218.316406 548.476562 245.558594 C 547.535156 252.804688 546.597656 259.648438 545.925781 265.953125 L 543.511719 290.109375 C 541.902344 305.808594 540.429688 321.507812 538.820312 337.210938 C 538.148438 343.515625 537.746094 349.957031 537.34375 356.265625 C 536.269531 371.695312 535.332031 387.53125 531.308594 402.695312 C 527.6875 416.515625 519.773438 435.707031 502.738281 448.050781 C 488.25 458.652344 471.082031 461.871094 453.378906 461.871094 C 438.222656 461.871094 422.664062 459.457031 408.042969 457.175781 C 399.59375 455.832031 391.542969 454.625 384.03125 453.953125 C 383.09375 453.820312 381.886719 453.6875 381.351562 453.953125 C 380.8125 454.089844 380.144531 454.894531 379.472656 455.566406 C 374.644531 460.664062 369.949219 466.167969 365.390625 471.535156 C 354.792969 484.148438 343.792969 497.296875 329.175781 506.019531 C 320.589844 511.386719 312.273438 513.535156 304.226562 513.535156 Z M 197.191406 445.5 C 200.945312 445.5 204.96875 445.902344 208.726562 447.113281 C 214.226562 448.988281 218.652344 452.480469 222.675781 455.566406 L 260.5 484.953125 C 269.753906 492.066406 280.617188 499.847656 292.019531 503.203125 C 303.554688 506.691406 314.152344 505.214844 324.746094 498.910156 C 338.160156 490.855469 348.757812 478.242188 358.949219 466.167969 C 363.511719 460.664062 368.339844 455.027344 373.300781 449.796875 C 374.375 448.585938 375.984375 446.976562 378.132812 446.171875 C 380.546875 445.234375 382.960938 445.5 384.835938 445.636719 C 392.617188 446.441406 400.664062 447.648438 409.25 448.988281 C 439.429688 453.6875 473.632812 458.921875 497.640625 441.339844 C 512.664062 430.335938 519.773438 413.160156 522.992188 400.546875 C 526.746094 386.1875 527.820312 370.625 528.757812 355.726562 C 529.160156 349.285156 529.5625 342.710938 530.234375 336.40625 C 531.84375 320.703125 533.320312 305.003906 534.929688 289.304688 L 537.34375 265.148438 C 538.011719 258.574219 538.953125 251.730469 539.890625 244.484375 C 543.511719 218.183594 547.671875 188.394531 538.953125 165.042969 C 534.929688 154.175781 528.625 145.855469 519.636719 139.28125 C 496.03125 122.101562 462.5 125.054688 432.855469 127.605469 C 430.171875 127.875 427.492188 128.007812 424.941406 128.277344 L 423.871094 128.410156 C 418.371094 128.8125 412.601562 129.351562 406.835938 129.617188 L 144.476562 143.707031 C 139.515625 143.976562 134.550781 144.109375 129.589844 144.246094 C 113.492188 144.648438 96.726562 145.050781 81.839844 150.550781 C 66.144531 156.320312 54.34375 167.058594 47.769531 181.414062 C 41.601562 194.96875 40.125 211.742188 43.878906 228.382812 C 54.476562 275.484375 64.535156 321.507812 73.792969 365.253906 C 74.597656 369.148438 75.402344 373.171875 76.070312 377.0625 C 79.558594 395.449219 83.046875 414.503906 95.386719 427.921875 C 117.113281 451.539062 154.941406 448.722656 185.386719 446.304688 C 186.996094 446.171875 188.605469 446.039062 190.214844 445.902344 C 192.765625 445.636719 195.042969 445.5 197.191406 445.5 Z M 197.191406 445.5 "/></g><path style=" stroke:none;fill-rule:nonzero;fill:#ffffff;fill-opacity:1;" d="M 162.585938 293.328125 C 159.5 293.464844 156.953125 291.183594 156.816406 288.097656 L 152.660156 196.175781 C 152.523438 193.089844 154.804688 190.539062 157.890625 190.40625 L 173.449219 189.734375 C 191.824219 188.929688 200.8125 198.859375 201.617188 218.71875 L 203.496094 261.125 C 204.433594 280.984375 196.25 291.71875 178.011719 292.523438 Z M 168.21875 205.03125 L 171.4375 277.765625 L 177.339844 277.496094 C 185.386719 277.09375 188.605469 272.128906 188.070312 261.796875 L 186.191406 219.390625 C 185.789062 209.191406 182.167969 204.363281 174.121094 204.765625 Z M 168.21875 205.03125 "/><path style=" stroke:none;fill-rule:nonzero;fill:#ffffff;fill-opacity:1;" d="M 214.226562 217.648438 C 213.421875 198.457031 221.332031 187.453125 237.964844 186.78125 C 254.730469 185.976562 263.449219 196.042969 264.390625 215.5 L 266.265625 258.707031 C 266.804688 270.785156 263.988281 277.898438 259.425781 282.863281 C 254.597656 287.960938 248.292969 289.4375 242.660156 289.707031 C 237.160156 289.976562 230.722656 289.035156 225.492188 284.339844 C 220.527344 279.777344 216.90625 272.933594 216.371094 260.855469 Z M 231.527344 260.183594 C 231.929688 270.25 235.417969 274.8125 241.988281 274.542969 C 248.429688 274.273438 251.511719 269.710938 251.109375 259.246094 L 249.234375 216.035156 C 248.832031 205.839844 245.34375 201.542969 238.769531 201.8125 C 232.0625 202.082031 229.246094 207.046875 229.648438 216.976562 Z M 231.527344 260.183594 "/><path style=" stroke:none;fill-rule:nonzero;fill:#ffffff;fill-opacity:1;" d="M 320.992188 286.082031 C 319.113281 286.21875 316.429688 284.605469 315.761719 282.996094 L 292.152344 231.46875 L 294.433594 281.921875 C 294.570312 285.011719 292.019531 287.558594 289.203125 287.695312 L 284.777344 287.828125 C 281.824219 287.960938 279.144531 285.679688 279.007812 282.59375 L 274.851562 190.675781 C 274.71875 187.589844 277.265625 185.039062 280.082031 184.90625 L 283.703125 184.769531 C 285.714844 184.636719 288.265625 186.246094 288.933594 187.855469 L 312.542969 239.386719 L 310.261719 188.929688 C 310.128906 185.84375 312.40625 183.292969 315.492188 183.160156 L 319.785156 183.027344 C 322.871094 182.890625 325.417969 185.171875 325.550781 188.257812 L 329.710938 280.179688 C 329.84375 283.265625 327.5625 285.816406 324.480469 285.949219 Z M 320.992188 286.082031 "/><path style=" stroke:none;fill-rule:nonzero;fill:#ffffff;fill-opacity:1;" d="M 352.511719 198.996094 C 352.648438 202.082031 350.367188 204.628906 347.28125 204.765625 L 342.988281 204.898438 C 340.039062 205.03125 337.488281 202.75 337.355469 199.664062 L 336.820312 187.722656 C 336.683594 184.636719 338.964844 182.085938 341.917969 181.953125 L 346.207031 181.816406 C 349.292969 181.683594 351.839844 183.964844 351.976562 187.050781 Z M 352.511719 198.996094 "/><path style=" stroke:none;fill-rule:nonzero;fill:#ffffff;fill-opacity:1;" d="M 357.074219 186.78125 C 356.9375 183.695312 359.21875 181.148438 362.304688 181.011719 L 402.273438 179.269531 C 405.359375 179.132812 407.90625 181.414062 408.042969 184.5 L 408.175781 188.796875 C 408.308594 191.882812 406.03125 194.433594 402.945312 194.566406 L 390.472656 195.101562 L 394.226562 277.226562 C 394.359375 280.3125 392.082031 282.863281 388.996094 282.996094 L 384.835938 283.132812 C 381.753906 283.265625 379.203125 280.984375 379.070312 277.898438 L 375.316406 195.773438 L 362.972656 196.308594 C 359.890625 196.445312 357.339844 194.164062 357.207031 191.078125 Z M 357.074219 186.78125 "/><path style=" stroke:none;fill-rule:nonzero;fill:#ffffff;fill-opacity:1;" d="M 187.128906 311.445312 C 189.410156 311.3125 191.421875 313.054688 191.421875 315.472656 L 191.558594 318.558594 C 191.691406 320.839844 189.949219 322.851562 187.53125 322.851562 L 169.960938 323.65625 L 170.902344 345.394531 L 183.910156 344.859375 C 186.191406 344.722656 188.203125 346.46875 188.203125 348.882812 L 188.335938 351.972656 C 188.472656 354.253906 186.726562 356.265625 184.3125 356.265625 L 171.304688 356.800781 L 172.644531 386.054688 C 172.777344 388.335938 170.902344 390.347656 168.621094 390.347656 L 165.402344 390.484375 C 163.121094 390.617188 161.109375 388.871094 161.109375 386.457031 L 158.023438 316.679688 C 157.890625 314.398438 159.632812 312.382812 162.046875 312.382812 Z M 187.128906 311.445312 "/><path style=" stroke:none;fill-rule:nonzero;fill:#ffffff;fill-opacity:1;" d="M 195.445312 333.722656 C 194.777344 319.09375 200.8125 310.773438 213.421875 310.238281 C 226.164062 309.699219 232.734375 317.214844 233.40625 331.976562 L 234.878906 364.71875 C 235.28125 373.84375 233.136719 379.34375 229.648438 383.101562 C 226.027344 386.996094 221.199219 388.066406 216.90625 388.335938 C 212.75 388.46875 207.785156 387.800781 203.898438 384.308594 C 200.140625 380.820312 197.324219 375.722656 196.921875 366.464844 Z M 208.589844 366.0625 C 208.992188 373.710938 211.542969 377.199219 216.503906 376.929688 C 221.332031 376.660156 223.746094 373.171875 223.480469 365.390625 L 222.003906 332.648438 C 221.601562 324.863281 219.054688 321.644531 214.089844 321.914062 C 208.992188 322.179688 206.847656 325.804688 207.117188 333.316406 Z M 208.589844 366.0625 "/><path style=" stroke:none;fill-rule:nonzero;fill:#ffffff;fill-opacity:1;" d="M 282.09375 381.222656 C 282.230469 383.503906 280.484375 385.519531 278.070312 385.519531 L 274.851562 385.652344 C 272.570312 385.785156 270.558594 384.042969 270.558594 381.625 L 269.753906 362.304688 C 269.484375 356.535156 266.132812 353.445312 260.367188 353.714844 L 255.132812 353.984375 L 256.476562 382.433594 C 256.609375 384.714844 254.867188 386.726562 252.585938 386.726562 L 249.367188 386.859375 C 247.085938 386.996094 245.074219 385.25 245.074219 382.835938 L 241.988281 313.054688 C 241.855469 310.773438 243.597656 308.761719 246.011719 308.761719 L 260.632812 308.089844 C 274.851562 307.417969 280.214844 314.398438 280.886719 329.964844 C 281.15625 337.210938 280.214844 342.980469 276.730469 346.738281 C 276.460938 347.140625 276.191406 347.410156 275.789062 347.675781 C 279.277344 351.164062 281.15625 355.863281 281.421875 361.765625 Z M 254.597656 342.308594 L 259.828125 342.039062 C 266.265625 341.773438 269.484375 338.417969 269.21875 330.5 C 268.816406 322.582031 266.9375 319.496094 260.902344 319.765625 L 253.660156 320.035156 Z M 254.597656 342.308594 "/><path style=" stroke:none;fill-rule:nonzero;fill:#ffffff;fill-opacity:1;" d="M 323.40625 344.320312 C 325.550781 344.1875 327.5625 345.933594 327.699219 348.347656 L 328.234375 360.691406 C 328.90625 375.453125 323.003906 383.640625 310.261719 384.175781 C 297.519531 384.714844 290.8125 377.0625 290.140625 362.4375 L 288.667969 329.425781 C 287.996094 314.664062 294.03125 306.613281 306.773438 306.078125 C 319.515625 305.542969 326.089844 313.054688 326.757812 327.683594 L 326.894531 329.292969 C 327.027344 331.574219 325.285156 333.585938 323.003906 333.585938 L 319.652344 333.722656 C 317.371094 333.855469 315.359375 332.109375 315.359375 329.695312 L 315.222656 328.085938 C 314.957031 322.582031 313.75 319.898438 312.273438 318.691406 C 310.796875 317.484375 308.921875 317.351562 307.3125 317.351562 C 305.703125 317.351562 303.6875 317.753906 302.480469 319.09375 C 300.871094 320.570312 300.066406 323.386719 300.203125 328.757812 C 301.007812 347.140625 301.542969 358.8125 301.675781 361.765625 C 302.078125 369.28125 304.628906 372.769531 309.726562 372.5 C 314.6875 372.234375 316.96875 368.609375 316.699219 361.09375 L 316.429688 356.128906 L 312.40625 356.265625 C 305.96875 356.535156 305.03125 344.992188 311.871094 344.722656 Z M 323.40625 344.320312 "/><path style=" stroke:none;fill-rule:nonzero;fill:#ffffff;fill-opacity:1;" d="M 363.242188 303.527344 C 365.523438 303.394531 367.535156 305.136719 367.535156 307.554688 L 367.667969 310.640625 C 367.804688 312.921875 366.058594 314.933594 363.644531 314.933594 L 345.941406 315.738281 L 346.878906 337.476562 L 361.5 336.808594 C 363.78125 336.671875 365.792969 338.417969 365.792969 340.832031 L 365.925781 343.917969 C 366.058594 346.199219 364.316406 348.214844 361.902344 348.214844 L 347.28125 348.882812 L 348.21875 370.757812 L 365.925781 369.953125 C 368.207031 369.816406 370.21875 371.5625 370.21875 373.976562 L 370.351562 377.0625 C 370.484375 379.34375 368.742188 381.359375 366.328125 381.359375 L 341.246094 382.433594 C 338.964844 382.566406 336.953125 380.820312 336.953125 378.40625 L 333.867188 308.628906 C 333.734375 306.347656 335.476562 304.332031 337.890625 304.332031 Z M 363.242188 303.527344 "/><path style=" stroke:none;fill-rule:nonzero;fill:#ffffff;fill-opacity:1;" d="M 374.777344 307.152344 C 374.644531 304.871094 376.386719 302.855469 378.800781 302.855469 L 409.113281 301.515625 C 411.394531 301.382812 413.40625 303.125 413.40625 305.539062 L 413.542969 308.761719 C 413.675781 311.042969 411.933594 313.054688 409.515625 313.054688 L 399.996094 313.457031 L 402.8125 375.855469 C 402.945312 378.136719 401.203125 380.152344 398.789062 380.152344 L 395.703125 380.285156 C 393.421875 380.417969 391.410156 378.675781 391.410156 376.257812 L 388.59375 313.859375 L 379.203125 314.261719 C 376.925781 314.398438 374.910156 312.652344 374.910156 310.238281 Z M 374.777344 307.152344 "/><path style=" stroke:none;fill-rule:nonzero;fill:#ffffff;fill-opacity:1;" d="M 464.375 325.667969 C 464.644531 331.304688 460.085938 336.539062 454.183594 336.808594 L 445.867188 337.210938 C 440.234375 337.476562 435.269531 332.648438 435.003906 327.011719 L 428.832031 188.929688 C 428.5625 183.027344 433.125 178.0625 438.757812 177.792969 L 447.074219 177.390625 C 452.976562 177.121094 457.9375 181.683594 458.207031 187.589844 Z M 454.449219 344.859375 C 460.351562 344.589844 465.316406 349.152344 465.582031 355.058594 L 466.121094 366.328125 C 466.386719 372.234375 461.828125 377.199219 455.925781 377.464844 L 447.609375 377.871094 C 441.976562 378.136719 437.015625 373.574219 436.746094 367.671875 L 436.210938 356.398438 C 435.941406 350.496094 440.5 345.53125 446.136719 345.261719 Z M 454.449219 344.859375 "/><path style=" stroke:none;fill-rule:nonzero;fill:#333333;fill-opacity:1;" d="M 157.488281 298.832031 C 154.402344 298.964844 151.855469 296.683594 151.71875 293.597656 L 147.5625 201.679688 C 147.429688 198.589844 149.707031 196.042969 152.792969 195.90625 L 168.351562 195.238281 C 186.726562 194.433594 195.714844 204.363281 196.519531 224.222656 L 198.398438 266.625 C 199.335938 286.484375 191.15625 297.222656 172.914062 298.027344 Z M 163.121094 210.535156 L 166.339844 283.265625 L 172.242188 282.996094 C 180.289062 282.59375 183.507812 277.628906 182.972656 267.296875 L 181.09375 224.894531 C 180.691406 214.695312 177.070312 209.863281 169.023438 210.265625 Z M 163.121094 210.535156 "/><path style=" stroke:none;fill-rule:nonzero;fill:#333333;fill-opacity:1;" d="M 209.128906 223.148438 C 208.324219 203.960938 216.238281 192.957031 232.867188 192.285156 C 249.636719 191.480469 258.351562 201.542969 259.292969 221 L 261.171875 264.210938 C 261.707031 276.289062 258.890625 283.398438 254.328125 288.363281 C 249.5 293.464844 243.195312 294.941406 237.5625 295.207031 C 232.0625 295.476562 225.625 294.539062 220.394531 289.839844 C 215.433594 285.277344 211.808594 278.433594 211.273438 266.359375 Z M 226.429688 265.6875 C 226.832031 275.75 230.320312 280.3125 236.894531 280.046875 C 243.332031 279.777344 246.414062 275.214844 246.011719 264.746094 L 244.136719 221.539062 C 243.734375 211.339844 240.246094 207.046875 233.671875 207.3125 C 226.96875 207.582031 224.152344 212.546875 224.554688 222.476562 Z M 226.429688 265.6875 "/><path style=" stroke:none;fill-rule:nonzero;fill:#333333;fill-opacity:1;" d="M 316.027344 291.71875 C 314.152344 291.855469 311.46875 290.242188 310.796875 288.632812 L 287.191406 237.105469 L 289.472656 287.558594 C 289.605469 290.644531 287.058594 293.195312 284.242188 293.328125 L 279.8125 293.464844 C 276.863281 293.597656 274.179688 291.316406 274.046875 288.230469 L 269.886719 196.308594 C 269.753906 193.222656 272.304688 190.675781 275.121094 190.539062 L 278.742188 190.40625 C 280.753906 190.273438 283.300781 191.882812 283.972656 193.492188 L 307.578125 245.019531 L 305.296875 194.566406 C 305.164062 191.480469 307.445312 188.929688 310.53125 188.796875 L 314.820312 188.660156 C 317.90625 188.527344 320.457031 190.808594 320.589844 193.894531 L 324.746094 285.816406 C 324.882812 288.902344 322.601562 291.449219 319.515625 291.585938 Z M 316.027344 291.71875 "/><path style=" stroke:none;fill-rule:nonzero;fill:#333333;fill-opacity:1;" d="M 347.414062 204.628906 C 347.550781 207.714844 345.269531 210.265625 342.183594 210.402344 L 337.890625 210.535156 C 334.941406 210.667969 332.394531 208.386719 332.257812 205.300781 L 331.722656 193.359375 C 331.589844 190.273438 333.867188 187.722656 336.820312 187.589844 L 341.113281 187.453125 C 344.195312 187.320312 346.746094 189.601562 346.878906 192.6875 Z M 347.414062 204.628906 "/><path style=" stroke:none;fill-rule:nonzero;fill:#333333;fill-opacity:1;" d="M 351.976562 192.285156 C 351.839844 189.199219 354.121094 186.648438 357.207031 186.515625 L 397.175781 184.769531 C 400.261719 184.636719 402.8125 186.917969 402.945312 190.003906 L 403.078125 194.296875 C 403.214844 197.382812 400.933594 199.933594 397.847656 200.066406 L 385.375 200.605469 L 389.128906 282.730469 C 389.265625 285.816406 386.984375 288.363281 383.898438 288.5 L 379.742188 288.632812 C 376.65625 288.765625 374.105469 286.484375 373.972656 283.398438 L 370.21875 201.277344 L 357.878906 201.8125 C 354.792969 201.945312 352.246094 199.664062 352.109375 196.578125 Z M 351.976562 192.285156 "/><path style=" stroke:none;fill-rule:nonzero;fill:#333333;fill-opacity:1;" d="M 182.035156 317.082031 C 184.3125 316.945312 186.324219 318.691406 186.324219 321.105469 L 186.460938 324.195312 C 186.59375 326.476562 184.851562 328.488281 182.4375 328.488281 L 164.863281 329.292969 L 165.804688 351.03125 L 178.816406 350.496094 C 181.09375 350.359375 183.105469 352.105469 183.105469 354.519531 L 183.242188 357.605469 C 183.375 359.886719 181.632812 361.902344 179.21875 361.902344 L 166.207031 362.4375 L 167.546875 391.691406 C 167.683594 393.972656 165.804688 395.984375 163.523438 395.984375 L 160.304688 396.121094 C 158.023438 396.253906 156.011719 394.507812 156.011719 392.09375 L 152.925781 322.316406 C 152.792969 320.035156 154.539062 318.019531 156.953125 318.019531 Z M 182.035156 317.082031 "/><path style=" stroke:none;fill-rule:nonzero;fill:#333333;fill-opacity:1;" d="M 190.351562 339.355469 C 189.679688 324.730469 195.714844 316.410156 208.324219 315.875 C 221.066406 315.335938 227.636719 322.851562 228.308594 337.613281 L 229.785156 370.355469 C 230.1875 379.480469 228.039062 384.980469 224.554688 388.738281 C 220.929688 392.628906 216.101562 393.703125 211.808594 393.972656 C 207.652344 394.105469 202.691406 393.433594 198.800781 389.945312 C 195.042969 386.457031 192.226562 381.359375 191.824219 372.097656 Z M 203.496094 371.5625 C 203.898438 379.210938 206.445312 382.699219 211.40625 382.433594 C 216.238281 382.164062 218.652344 378.675781 218.382812 370.890625 L 216.90625 338.148438 C 216.503906 330.367188 213.957031 327.144531 208.992188 327.414062 C 203.898438 327.683594 201.75 331.304688 202.019531 338.820312 Z M 203.496094 371.5625 "/><path style=" stroke:none;fill-rule:nonzero;fill:#333333;fill-opacity:1;" d="M 276.996094 386.726562 C 277.132812 389.007812 275.386719 391.019531 272.972656 391.019531 L 269.753906 391.152344 C 267.472656 391.289062 265.460938 389.542969 265.460938 387.128906 L 264.65625 367.804688 C 264.390625 362.035156 261.035156 358.949219 255.269531 359.21875 L 250.039062 359.484375 L 251.378906 387.933594 C 251.511719 390.214844 249.769531 392.226562 247.488281 392.226562 L 244.269531 392.363281 C 241.988281 392.496094 239.976562 390.75 239.976562 388.335938 L 236.894531 318.558594 C 236.757812 316.277344 238.503906 314.261719 240.917969 314.261719 L 255.535156 313.59375 C 269.753906 312.921875 275.121094 319.898438 275.789062 335.464844 C 276.058594 342.710938 275.121094 348.480469 271.632812 352.238281 C 271.363281 352.640625 271.097656 352.910156 270.695312 353.179688 C 274.179688 356.667969 276.058594 361.363281 276.328125 367.269531 Z M 249.5 347.8125 L 254.730469 347.542969 C 261.171875 347.273438 264.390625 343.917969 264.121094 336.003906 C 263.851562 328.085938 261.839844 325 255.804688 325.265625 L 248.5625 325.535156 Z M 249.5 347.8125 "/><path style=" stroke:none;fill-rule:nonzero;fill:#333333;fill-opacity:1;" d="M 318.308594 349.957031 C 320.457031 349.824219 322.46875 351.566406 322.601562 353.984375 L 323.136719 366.328125 C 323.808594 381.089844 317.90625 389.277344 305.164062 389.8125 C 292.421875 390.347656 285.714844 382.699219 285.046875 368.074219 L 283.570312 335.0625 C 282.898438 320.300781 288.933594 312.25 301.675781 311.714844 C 314.417969 311.175781 320.992188 318.691406 321.664062 333.316406 L 321.796875 334.929688 C 321.929688 337.210938 320.1875 339.222656 317.90625 339.222656 L 314.554688 339.355469 C 312.273438 339.492188 310.261719 337.746094 310.261719 335.332031 L 310.128906 333.722656 C 309.859375 328.21875 308.652344 325.535156 307.175781 324.328125 C 305.703125 323.121094 303.824219 322.984375 302.214844 322.984375 C 300.605469 323.121094 298.59375 323.386719 297.386719 324.730469 C 295.777344 326.207031 294.972656 329.023438 295.105469 334.390625 C 295.910156 352.777344 296.445312 364.449219 296.582031 367.402344 C 296.984375 374.917969 299.53125 378.40625 304.628906 378.136719 C 309.589844 377.871094 311.871094 374.246094 311.601562 366.730469 L 311.335938 361.765625 L 307.3125 361.902344 C 300.871094 362.167969 299.933594 350.628906 306.773438 350.359375 Z M 318.308594 349.957031 "/><path style=" stroke:none;fill-rule:nonzero;fill:#333333;fill-opacity:1;" d="M 358.144531 309.164062 C 360.425781 309.03125 362.4375 310.773438 362.4375 313.191406 L 362.570312 316.277344 C 362.707031 318.558594 360.960938 320.570312 358.546875 320.570312 L 340.84375 321.375 L 341.78125 343.113281 L 356.402344 342.441406 C 358.683594 342.308594 360.695312 344.054688 360.695312 346.46875 L 360.828125 349.554688 C 360.960938 351.835938 359.21875 353.847656 356.804688 353.847656 L 342.183594 354.519531 L 343.125 376.394531 L 360.828125 375.589844 C 363.109375 375.453125 365.121094 377.199219 365.121094 379.613281 L 365.253906 382.699219 C 365.390625 384.980469 363.644531 386.996094 361.230469 386.996094 L 336.148438 388.066406 C 333.867188 388.203125 331.855469 386.457031 331.855469 384.042969 L 328.773438 314.261719 C 328.636719 311.980469 330.382812 309.96875 332.796875 309.96875 Z M 358.144531 309.164062 "/><path style=" stroke:none;fill-rule:nonzero;fill:#333333;fill-opacity:1;" d="M 369.816406 312.652344 C 369.679688 310.371094 371.425781 308.359375 373.839844 308.359375 L 404.152344 307.015625 C 406.433594 306.882812 408.445312 308.628906 408.445312 311.042969 L 408.578125 314.261719 C 408.710938 316.542969 406.96875 318.558594 404.554688 318.558594 L 395.03125 318.960938 L 397.847656 381.359375 C 397.980469 383.640625 396.238281 385.652344 393.824219 385.652344 L 390.738281 385.785156 C 388.460938 385.921875 386.445312 384.175781 386.445312 381.761719 L 383.628906 319.363281 L 374.242188 319.765625 C 371.960938 319.898438 369.949219 318.15625 369.949219 315.738281 Z M 369.816406 312.652344 "/><path style=" stroke:none;fill-rule:nonzero;fill:#333333;fill-opacity:1;" d="M 459.28125 331.171875 C 459.546875 336.808594 454.988281 342.039062 449.085938 342.308594 L 440.769531 342.710938 C 435.136719 342.980469 430.171875 338.148438 429.90625 332.511719 L 423.734375 194.433594 C 423.46875 188.527344 428.027344 183.5625 433.660156 183.292969 L 441.976562 182.890625 C 447.878906 182.625 452.839844 187.183594 453.109375 193.089844 Z M 449.355469 350.359375 C 455.253906 350.09375 460.21875 354.65625 460.488281 360.558594 L 461.023438 371.832031 C 461.292969 377.734375 456.730469 382.699219 450.828125 382.96875 L 442.511719 383.371094 C 436.878906 383.640625 431.917969 379.078125 431.648438 373.171875 L 431.113281 361.902344 C 430.84375 355.996094 435.40625 351.03125 441.039062 350.761719 Z M 449.355469 350.359375 "/></g></svg>