<svg xmlns="http://www.w3.org/2000/svg" xmlns:xlink="http://www.w3.org/1999/xlink" width="250" zoomAndPan="magnify" viewBox="0 0 187.5 187.499992" height="250" preserveAspectRatio="xMidYMid meet" version="1.2"><defs><clipPath id="d13a31e18b"><path d="M 21.695312 27 L 148 27 L 148 176 L 21.695312 176 Z M 21.695312 27 "/></clipPath><clipPath id="3ae728038c"><path d="M 111 102 L 166.808594 102 L 166.808594 158 L 111 158 Z M 111 102 "/></clipPath></defs><g id="c321ec6a36"><path style=" stroke:none;fill-rule:nonzero;fill:#ffffff;fill-opacity:1;" d="M 0 0 L 187 0 L 187 187 L 0 187 Z M 0 0 "/><path style=" stroke:none;fill-rule:nonzero;fill:#ffffff;fill-opacity:1;" d="M 0 0 L 187 0 L 187 187 L 0 187 Z M 0 0 "/><path style=" stroke:none;fill-rule:nonzero;fill:#d62028;fill-opacity:1;" d="M 58.160156 53.128906 L 110.757812 53.128906 C 112.871094 53.128906 114.582031 51.40625 114.582031 49.300781 L 114.582031 26.339844 C 114.582031 24.234375 112.871094 22.519531 110.757812 22.519531 L 104.105469 22.519531 C 101.214844 14.453125 93.511719 8.65625 84.464844 8.65625 C 75.40625 8.65625 67.703125 14.453125 64.816406 22.523438 L 58.160156 22.523438 C 56.050781 22.523438 54.339844 24.242188 54.339844 26.347656 L 54.339844 49.304688 C 54.339844 51.410156 56.050781 53.128906 58.160156 53.128906 Z M 84.464844 14.402344 C 90.269531 14.402344 95.332031 17.703125 97.859375 22.523438 L 71.054688 22.523438 C 73.585938 17.699219 78.644531 14.402344 84.464844 14.402344 Z M 84.464844 14.402344 "/><path style=" stroke:none;fill-rule:nonzero;fill:#d62028;fill-opacity:1;" d="M 43.15625 61.730469 L 55.597656 61.730469 L 55.597656 74.164062 L 43.15625 74.164062 Z M 43.15625 61.730469 "/><path style=" stroke:none;fill-rule:nonzero;fill:#d62028;fill-opacity:1;" d="M 61.226562 66.03125 L 125.769531 66.03125 L 125.769531 69.859375 L 61.226562 69.859375 Z M 61.226562 66.03125 "/><path style=" stroke:none;fill-rule:nonzero;fill:#d62028;fill-opacity:1;" d="M 43.15625 87.074219 L 55.597656 87.074219 L 55.597656 99.503906 L 43.15625 99.503906 Z M 43.15625 87.074219 "/><path style=" stroke:none;fill-rule:nonzero;fill:#d62028;fill-opacity:1;" d="M 61.226562 91.382812 L 125.769531 91.382812 L 125.769531 95.203125 L 61.226562 95.203125 Z M 61.226562 91.382812 "/><g clip-rule="nonzero" clip-path="url(#d13a31e18b)"><path style=" stroke:none;fill-rule:nonzero;fill:#d62028;fill-opacity:1;" d="M 139.582031 166.71875 C 139.582031 167.347656 139.0625 167.859375 138.441406 167.859375 L 30.472656 167.859375 C 29.851562 167.859375 29.332031 167.347656 29.332031 166.71875 L 29.332031 36.335938 C 29.332031 35.707031 29.851562 35.195312 30.472656 35.195312 L 48.59375 35.195312 L 48.59375 27.550781 L 30.472656 27.550781 C 25.628906 27.550781 21.695312 31.496094 21.695312 36.335938 L 21.695312 166.71875 C 21.695312 171.5625 25.628906 175.503906 30.472656 175.503906 L 138.441406 175.503906 C 143.285156 175.503906 147.21875 171.5625 147.21875 166.71875 L 147.21875 162.589844 C 144.761719 163.191406 142.210938 163.542969 139.574219 163.554688 L 139.574219 166.71875 Z M 139.582031 166.71875 "/></g><path style=" stroke:none;fill-rule:nonzero;fill:#d62028;fill-opacity:1;" d="M 139.582031 36.335938 L 139.582031 97.121094 C 142.210938 97.148438 144.769531 97.503906 147.226562 98.101562 L 147.226562 36.335938 C 147.226562 31.496094 143.292969 27.550781 138.445312 27.550781 L 120.328125 27.550781 L 120.328125 35.203125 L 138.445312 35.203125 C 139.0625 35.203125 139.582031 35.714844 139.582031 36.335938 Z M 139.582031 36.335938 "/><path style=" stroke:none;fill-rule:nonzero;fill:#d62028;fill-opacity:1;" d="M 43.15625 112.417969 L 55.597656 112.417969 L 55.597656 124.855469 L 43.15625 124.855469 Z M 43.15625 112.417969 "/><path style=" stroke:none;fill-rule:nonzero;fill:#d62028;fill-opacity:1;" d="M 61.226562 116.726562 L 61.226562 120.554688 L 107.585938 120.554688 C 108 119.226562 108.511719 117.96875 109.066406 116.726562 Z M 61.226562 116.726562 "/><path style=" stroke:none;fill-rule:nonzero;fill:#d62028;fill-opacity:1;" d="M 43.15625 137.765625 L 55.597656 137.765625 L 55.597656 150.191406 L 43.15625 150.191406 Z M 43.15625 137.765625 "/><path style=" stroke:none;fill-rule:nonzero;fill:#d62028;fill-opacity:1;" d="M 61.226562 145.890625 L 109.988281 145.890625 C 109.328125 144.664062 108.769531 143.371094 108.277344 142.0625 L 61.226562 142.0625 Z M 61.226562 145.890625 "/><g clip-rule="nonzero" clip-path="url(#3ae728038c)"><path style=" stroke:none;fill-rule:nonzero;fill:#d62028;fill-opacity:1;" d="M 139.339844 102.855469 C 124.15625 102.855469 111.847656 115.15625 111.847656 130.347656 C 111.847656 145.527344 124.15625 157.84375 139.339844 157.84375 C 154.527344 157.84375 166.835938 145.527344 166.835938 130.347656 C 166.835938 115.15625 154.527344 102.855469 139.339844 102.855469 Z M 152.972656 139.929688 C 154.097656 141.050781 154.097656 142.863281 152.972656 143.984375 C 152.414062 144.550781 151.683594 144.828125 150.941406 144.828125 C 150.203125 144.828125 149.472656 144.550781 148.910156 143.984375 L 139.339844 134.402344 L 129.757812 143.980469 C 129.203125 144.542969 128.46875 144.828125 127.730469 144.828125 C 126.992188 144.828125 126.261719 144.542969 125.699219 143.980469 C 124.582031 142.859375 124.582031 141.042969 125.699219 139.921875 L 135.277344 130.347656 L 125.699219 120.765625 C 124.582031 119.644531 124.582031 117.832031 125.699219 116.710938 C 126.824219 115.585938 128.632812 115.585938 129.757812 116.710938 L 139.339844 126.292969 L 148.921875 116.710938 C 150.035156 115.585938 151.855469 115.585938 152.984375 116.710938 C 154.097656 117.832031 154.097656 119.644531 152.984375 120.765625 L 143.402344 130.347656 Z M 152.972656 139.929688 "/></g></g></svg>