<svg xmlns="http://www.w3.org/2000/svg" xmlns:xlink="http://www.w3.org/1999/xlink" width="150" zoomAndPan="magnify" viewBox="0 0 112.5 112.499997" height="150" preserveAspectRatio="xMidYMid meet" version="1.2"><defs><clipPath id="df42e541eb"><path d="M 2.539062 2.164062 L 110 2.164062 L 110 109.6875 L 2.539062 109.6875 Z M 2.539062 2.164062 "/></clipPath></defs><g id="468f53106f"><g clip-rule="nonzero" clip-path="url(#df42e541eb)"><path style=" stroke:none;fill-rule:nonzero;fill:#ffd159;fill-opacity:1;" d="M 56.183594 2.164062 C 54.425781 2.164062 52.671875 2.25 50.925781 2.421875 C 49.175781 2.597656 47.441406 2.851562 45.71875 3.195312 C 43.996094 3.539062 42.292969 3.964844 40.609375 4.476562 C 38.929688 4.984375 37.277344 5.578125 35.652344 6.25 C 34.03125 6.921875 32.445312 7.671875 30.894531 8.5 C 29.347656 9.328125 27.839844 10.230469 26.378906 11.207031 C 24.917969 12.183594 23.507812 13.226562 22.152344 14.34375 C 20.792969 15.457031 19.492188 16.636719 18.25 17.878906 C 17.007812 19.121094 15.828125 20.421875 14.714844 21.777344 C 13.601562 23.136719 12.554688 24.546875 11.578125 26.007812 C 10.601562 27.46875 9.703125 28.972656 8.871094 30.523438 C 8.042969 32.070312 7.292969 33.65625 6.621094 35.28125 C 5.949219 36.902344 5.359375 38.554688 4.847656 40.238281 C 4.339844 41.917969 3.914062 43.621094 3.570312 45.34375 C 3.226562 47.066406 2.96875 48.804688 2.796875 50.550781 C 2.625 52.300781 2.539062 54.054688 2.539062 55.808594 C 2.539062 57.566406 2.625 59.320312 2.796875 61.066406 C 2.96875 62.816406 3.226562 64.550781 3.570312 66.273438 C 3.914062 68 4.339844 69.699219 4.847656 71.382812 C 5.359375 73.0625 5.949219 74.714844 6.621094 76.339844 C 7.292969 77.960938 8.042969 79.546875 8.871094 81.097656 C 9.703125 82.648438 10.601562 84.152344 11.578125 85.613281 C 12.554688 87.074219 13.601562 88.484375 14.714844 89.839844 C 15.828125 91.199219 17.007812 92.5 18.25 93.742188 C 19.492188 94.984375 20.792969 96.164062 22.152344 97.277344 C 23.507812 98.390625 24.917969 99.4375 26.378906 100.414062 C 27.839844 101.390625 29.347656 102.292969 30.894531 103.121094 C 32.445312 103.949219 34.03125 104.699219 35.652344 105.371094 C 37.277344 106.042969 38.929688 106.632812 40.609375 107.144531 C 42.292969 107.652344 43.996094 108.082031 45.71875 108.421875 C 47.441406 108.765625 49.175781 109.023438 50.925781 109.195312 C 52.671875 109.367188 54.425781 109.453125 56.183594 109.453125 C 57.941406 109.453125 59.691406 109.367188 61.441406 109.195312 C 63.191406 109.023438 64.925781 108.765625 66.648438 108.421875 C 68.371094 108.082031 70.074219 107.652344 71.753906 107.144531 C 73.4375 106.632812 75.089844 106.042969 76.710938 105.371094 C 78.335938 104.699219 79.921875 103.949219 81.472656 103.121094 C 83.019531 102.292969 84.527344 101.390625 85.984375 100.414062 C 87.445312 99.4375 88.855469 98.390625 90.214844 97.277344 C 91.574219 96.164062 92.875 94.984375 94.117188 93.742188 C 95.359375 92.5 96.535156 91.199219 97.652344 89.839844 C 98.765625 88.484375 99.8125 87.074219 100.785156 85.613281 C 101.761719 84.152344 102.664062 82.648438 103.492188 81.097656 C 104.320312 79.546875 105.070312 77.960938 105.742188 76.339844 C 106.417969 74.714844 107.007812 73.0625 107.515625 71.382812 C 108.027344 69.699219 108.453125 68 108.796875 66.273438 C 109.140625 64.550781 109.398438 62.816406 109.570312 61.066406 C 109.742188 59.320312 109.828125 57.566406 109.828125 55.808594 C 109.828125 54.054688 109.742188 52.300781 109.570312 50.550781 C 109.398438 48.804688 109.140625 47.066406 108.796875 45.34375 C 108.453125 43.621094 108.027344 41.917969 107.515625 40.238281 C 107.007812 38.554688 106.417969 36.902344 105.742188 35.28125 C 105.070312 33.65625 104.320312 32.070312 103.492188 30.523438 C 102.664062 28.972656 101.761719 27.46875 100.785156 26.007812 C 99.8125 24.546875 98.765625 23.136719 97.652344 21.777344 C 96.535156 20.421875 95.359375 19.121094 94.117188 17.878906 C 92.875 16.636719 91.574219 15.457031 90.214844 14.34375 C 88.855469 13.226562 87.445312 12.183594 85.984375 11.207031 C 84.527344 10.230469 83.019531 9.328125 81.472656 8.5 C 79.921875 7.671875 78.335938 6.921875 76.710938 6.25 C 75.089844 5.578125 73.4375 4.984375 71.753906 4.476562 C 70.074219 3.964844 68.371094 3.539062 66.648438 3.195312 C 64.925781 2.851562 63.191406 2.597656 61.441406 2.421875 C 59.691406 2.25 57.941406 2.164062 56.183594 2.164062 Z M 83.003906 59.640625 L 60.015625 59.640625 L 60.015625 82.632812 L 52.351562 82.632812 L 52.351562 59.640625 L 29.359375 59.640625 L 29.359375 51.976562 L 52.351562 51.976562 L 52.351562 28.988281 L 60.015625 28.988281 L 60.015625 51.976562 L 83.003906 51.976562 Z M 83.003906 59.640625 "/></g><g style="fill:#000000;fill-opacity:1;"><g transform="translate(55.478432, 57.121125)"><path style="stroke:none" d="M 0.515625 0.015625 C 0.441406 0.015625 0.382812 -0.00390625 0.34375 -0.046875 C 0.300781 -0.0859375 0.28125 -0.140625 0.28125 -0.203125 C 0.28125 -0.273438 0.300781 -0.332031 0.34375 -0.375 C 0.382812 -0.414062 0.441406 -0.4375 0.515625 -0.4375 C 0.597656 -0.4375 0.660156 -0.414062 0.703125 -0.375 C 0.742188 -0.332031 0.765625 -0.28125 0.765625 -0.21875 C 0.765625 -0.144531 0.742188 -0.0859375 0.703125 -0.046875 C 0.660156 -0.00390625 0.597656 0.015625 0.515625 0.015625 Z M 0.515625 0.015625 "/></g></g></g></svg>