<svg xmlns="http://www.w3.org/2000/svg" xmlns:xlink="http://www.w3.org/1999/xlink" width="400" zoomAndPan="magnify" viewBox="0 0 300 299.999988" height="400" preserveAspectRatio="xMidYMid meet" version="1.2"><defs><clipPath id="093ecc2d95"><path d="M 103 12 L 119 12 L 119 20 L 103 20 Z M 103 12 "/></clipPath><clipPath id="3ea76a2aa3"><path d="M 122.347656 -6.1875 L 305.289062 163.835938 L 181.214844 297.332031 L -1.722656 127.308594 Z M 122.347656 -6.1875 "/></clipPath><clipPath id="cc1b812c9a"><path d="M 122.347656 -6.1875 L 305.289062 163.835938 L 181.214844 297.332031 L -1.722656 127.308594 Z M 122.347656 -6.1875 "/></clipPath><clipPath id="d6ced44fff"><path d="M 122.347656 -6.1875 L 305.289062 163.835938 L 181.214844 297.332031 L -1.722656 127.308594 Z M 122.347656 -6.1875 "/></clipPath><clipPath id="7832f5e8bc"><path d="M 81 17 L 207 17 L 207 238 L 81 238 Z M 81 17 "/></clipPath><clipPath id="2a723511da"><path d="M 122.347656 -6.1875 L 305.289062 163.835938 L 181.214844 297.332031 L -1.722656 127.308594 Z M 122.347656 -6.1875 "/></clipPath><clipPath id="22eccaba77"><path d="M 122.347656 -6.1875 L 305.289062 163.835938 L 181.214844 297.332031 L -1.722656 127.308594 Z M 122.347656 -6.1875 "/></clipPath><clipPath id="d95d41b86c"><path d="M 122.347656 -6.1875 L 305.289062 163.835938 L 181.214844 297.332031 L -1.722656 127.308594 Z M 122.347656 -6.1875 "/></clipPath><clipPath id="827879b20d"><path d="M 173 248 L 182 248 L 182 264 L 173 264 Z M 173 248 "/></clipPath><clipPath id="94b24cc9be"><path d="M 122.347656 -6.1875 L 305.289062 163.835938 L 181.214844 297.332031 L -1.722656 127.308594 Z M 122.347656 -6.1875 "/></clipPath><clipPath id="0161fca2b7"><path d="M 122.347656 -6.1875 L 305.289062 163.835938 L 181.214844 297.332031 L -1.722656 127.308594 Z M 122.347656 -6.1875 "/></clipPath><clipPath id="b713c4ec46"><path d="M 122.347656 -6.1875 L 305.289062 163.835938 L 181.214844 297.332031 L -1.722656 127.308594 Z M 122.347656 -6.1875 "/></clipPath><clipPath id="aee934a0af"><path d="M 147 242 L 206 242 L 206 298 L 147 298 Z M 147 242 "/></clipPath><clipPath id="e7045ac336"><path d="M 122.347656 -6.1875 L 305.289062 163.835938 L 181.214844 297.332031 L -1.722656 127.308594 Z M 122.347656 -6.1875 "/></clipPath><clipPath id="2b706d738b"><path d="M 122.347656 -6.1875 L 305.289062 163.835938 L 181.214844 297.332031 L -1.722656 127.308594 Z M 122.347656 -6.1875 "/></clipPath><clipPath id="4f5654aad9"><path d="M 122.347656 -6.1875 L 305.289062 163.835938 L 181.214844 297.332031 L -1.722656 127.308594 Z M 122.347656 -6.1875 "/></clipPath></defs><g id="5b5cfad3dd"><g clip-rule="nonzero" clip-path="url(#093ecc2d95)"><g clip-rule="nonzero" clip-path="url(#3ea76a2aa3)"><g clip-rule="nonzero" clip-path="url(#cc1b812c9a)"><g clip-rule="nonzero" clip-path="url(#d6ced44fff)"><path style=" stroke:none;fill-rule:nonzero;fill:#000000;fill-opacity:1;" d="M 104.683594 17.863281 C 104.453125 17.648438 104.257812 17.40625 104.105469 17.132812 C 103.949219 16.859375 103.839844 16.570312 103.773438 16.261719 C 103.710938 15.953125 103.691406 15.644531 103.722656 15.328125 C 103.753906 15.015625 103.832031 14.714844 103.953125 14.425781 C 104.078125 14.136719 104.242188 13.875 104.449219 13.636719 C 104.652344 13.394531 104.890625 13.195312 105.160156 13.027344 C 105.425781 12.863281 105.710938 12.742188 106.015625 12.664062 C 106.324219 12.589844 106.632812 12.558594 106.945312 12.578125 C 110.058594 12.761719 113.214844 13.101562 116.328125 13.574219 C 116.734375 13.632812 117.113281 13.761719 117.464844 13.96875 C 117.816406 14.179688 118.113281 14.445312 118.359375 14.773438 C 118.601562 15.101562 118.773438 15.460938 118.875 15.859375 C 118.972656 16.253906 118.992188 16.65625 118.929688 17.058594 C 118.867188 17.464844 118.726562 17.839844 118.515625 18.191406 C 118.300781 18.539062 118.03125 18.832031 117.699219 19.074219 C 117.367188 19.3125 117 19.480469 116.601562 19.574219 C 116.207031 19.664062 115.804688 19.679688 115.402344 19.609375 C 112.480469 19.171875 109.5 18.847656 106.578125 18.675781 C 105.847656 18.632812 105.214844 18.359375 104.683594 17.863281 Z M 104.683594 17.863281 "/></g></g></g></g><g clip-rule="nonzero" clip-path="url(#7832f5e8bc)"><g clip-rule="nonzero" clip-path="url(#2a723511da)"><g clip-rule="nonzero" clip-path="url(#22eccaba77)"><g clip-rule="nonzero" clip-path="url(#d95d41b86c)"><path style=" stroke:none;fill-rule:nonzero;fill:#000000;fill-opacity:1;" d="M 94.96875 193.664062 C 91.917969 190.839844 89.292969 187.660156 87.101562 184.125 C 86.890625 183.777344 86.75 183.40625 86.6875 183.007812 C 86.621094 182.609375 86.636719 182.210938 86.730469 181.816406 C 86.824219 181.421875 86.988281 181.0625 87.226562 180.734375 C 87.464844 180.40625 87.753906 180.132812 88.101562 179.921875 C 88.445312 179.707031 88.816406 179.570312 89.214844 179.503906 C 89.617188 179.441406 90.011719 179.453125 90.40625 179.546875 C 90.800781 179.640625 91.160156 179.804688 91.488281 180.042969 C 91.816406 180.277344 92.085938 180.570312 92.300781 180.914062 C 94.203125 183.980469 96.480469 186.738281 99.128906 189.1875 C 100.558594 190.507812 102.066406 191.734375 103.652344 192.859375 C 103.984375 193.09375 104.253906 193.382812 104.46875 193.726562 C 104.683594 194.066406 104.824219 194.4375 104.890625 194.839844 C 104.960938 195.238281 104.949219 195.632812 104.855469 196.027344 C 104.765625 196.421875 104.605469 196.785156 104.367188 197.117188 C 104.132812 197.445312 103.847656 197.71875 103.503906 197.933594 C 103.160156 198.148438 102.789062 198.292969 102.390625 198.359375 C 101.992188 198.425781 101.59375 198.417969 101.199219 198.328125 C 100.804688 198.238281 100.441406 198.078125 100.113281 197.84375 C 98.308594 196.558594 96.59375 195.167969 94.96875 193.664062 Z M 115.8125 205.246094 C 115.5625 205.011719 115.355469 204.742188 115.195312 204.441406 C 115.03125 204.136719 114.925781 203.8125 114.871094 203.472656 C 114.820312 203.132812 114.824219 202.796875 114.886719 202.457031 C 114.949219 202.117188 115.066406 201.800781 115.234375 201.5 C 115.40625 201.199219 115.617188 200.9375 115.878906 200.710938 C 116.136719 200.484375 116.425781 200.304688 116.742188 200.175781 C 117.0625 200.046875 117.394531 199.972656 117.738281 199.953125 C 118.082031 199.9375 118.417969 199.976562 118.746094 200.074219 C 124.183594 201.664062 129.730469 202.375 135.394531 202.199219 C 135.816406 202.152344 136.230469 202.195312 136.636719 202.324219 C 137.042969 202.449219 137.40625 202.652344 137.726562 202.933594 C 138.046875 203.210938 138.296875 203.542969 138.476562 203.929688 C 138.660156 204.3125 138.753906 204.71875 138.769531 205.140625 C 138.78125 205.566406 138.707031 205.976562 138.546875 206.371094 C 138.390625 206.765625 138.15625 207.113281 137.855469 207.410156 C 137.550781 207.710938 137.199219 207.933594 136.804688 208.085938 C 136.40625 208.238281 135.996094 208.304688 135.570312 208.285156 C 129.269531 208.476562 123.097656 207.6875 117.050781 205.921875 C 116.585938 205.792969 116.171875 205.566406 115.8125 205.246094 Z M 82.070312 167.984375 C 81.480469 167.4375 81.15625 166.761719 81.101562 165.960938 C 80.632812 159.050781 82.246094 152.800781 85.757812 147.882812 C 85.953125 147.601562 86.160156 147.324219 86.371094 147.054688 C 86.621094 146.734375 86.925781 146.472656 87.277344 146.273438 C 87.632812 146.074219 88.011719 145.949219 88.414062 145.902344 C 88.816406 145.851562 89.214844 145.882812 89.605469 145.992188 C 89.996094 146.101562 90.351562 146.28125 90.671875 146.53125 C 90.992188 146.78125 91.25 147.082031 91.449219 147.4375 C 91.648438 147.789062 91.773438 148.167969 91.820312 148.570312 C 91.871094 148.976562 91.839844 149.371094 91.730469 149.765625 C 91.621094 150.15625 91.441406 150.511719 91.191406 150.832031 C 91.019531 151.015625 90.882812 151.230469 90.738281 151.433594 C 87.351562 156.179688 86.949219 161.730469 87.203125 165.550781 C 87.246094 166.175781 87.109375 166.757812 86.792969 167.296875 C 86.476562 167.835938 86.035156 168.242188 85.46875 168.511719 C 84.90625 168.78125 84.316406 168.867188 83.695312 168.773438 C 83.078125 168.679688 82.539062 168.421875 82.082031 167.996094 Z M 170.941406 236.1875 C 170.507812 235.78125 170.214844 235.292969 170.066406 234.714844 C 168.617188 229.046875 166.949219 223.363281 165.117188 217.804688 C 164.976562 217.417969 164.914062 217.015625 164.933594 216.601562 C 164.953125 216.1875 165.050781 215.796875 165.230469 215.421875 C 165.410156 215.046875 165.65625 214.722656 165.96875 214.449219 C 166.277344 214.175781 166.628906 213.972656 167.023438 213.84375 C 167.417969 213.714844 167.820312 213.664062 168.234375 213.699219 C 168.644531 213.730469 169.035156 213.84375 169.402344 214.039062 C 169.769531 214.230469 170.082031 214.484375 170.34375 214.804688 C 170.605469 215.125 170.796875 215.484375 170.910156 215.882812 C 172.792969 221.566406 174.496094 227.386719 175.984375 233.191406 C 176.066406 233.511719 176.09375 233.835938 176.070312 234.164062 C 176.046875 234.492188 175.972656 234.8125 175.847656 235.117188 C 175.722656 235.421875 175.550781 235.699219 175.332031 235.949219 C 175.117188 236.199219 174.867188 236.410156 174.582031 236.578125 C 174.296875 236.746094 173.996094 236.867188 173.671875 236.9375 C 173.347656 237.007812 173.023438 237.023438 172.695312 236.988281 C 172.367188 236.953125 172.054688 236.867188 171.753906 236.730469 C 171.453125 236.59375 171.183594 236.410156 170.941406 236.1875 Z M 150.808594 203.929688 C 150.621094 203.753906 150.457031 203.554688 150.316406 203.335938 C 150.175781 203.117188 150.066406 202.886719 149.988281 202.636719 C 149.90625 202.390625 149.859375 202.136719 149.84375 201.878906 C 149.828125 201.617188 149.847656 201.359375 149.898438 201.105469 C 149.949219 200.851562 150.03125 200.605469 150.144531 200.371094 C 150.257812 200.136719 150.398438 199.921875 150.566406 199.722656 C 150.734375 199.523438 150.921875 199.351562 151.136719 199.203125 C 151.347656 199.050781 151.578125 198.929688 151.820312 198.839844 C 153.574219 198.179688 155.3125 197.429688 157.03125 196.585938 C 155.367188 192.746094 153.609375 188.933594 151.773438 185.210938 C 151.582031 184.847656 151.46875 184.457031 151.429688 184.046875 C 151.394531 183.636719 151.441406 183.234375 151.570312 182.839844 C 151.695312 182.449219 151.894531 182.09375 152.164062 181.78125 C 152.433594 181.46875 152.753906 181.222656 153.125 181.039062 C 153.496094 180.855469 153.886719 180.753906 154.300781 180.730469 C 154.710938 180.707031 155.113281 180.761719 155.5 180.902344 C 155.890625 181.039062 156.234375 181.25 156.539062 181.527344 C 156.84375 181.808594 157.082031 182.132812 157.25 182.507812 C 159.039062 186.140625 160.757812 189.855469 162.390625 193.601562 C 163.851562 192.695312 165.28125 191.730469 166.6875 190.695312 C 167.011719 190.46875 167.371094 190.308594 167.757812 190.222656 C 168.144531 190.132812 168.535156 190.125 168.929688 190.1875 C 169.320312 190.253906 169.6875 190.390625 170.027344 190.597656 C 170.363281 190.804688 170.652344 191.070312 170.886719 191.390625 C 171.121094 191.710938 171.289062 192.0625 171.386719 192.449219 C 171.484375 192.835938 171.503906 193.226562 171.449219 193.617188 C 171.394531 194.011719 171.265625 194.382812 171.066406 194.726562 C 170.867188 195.070312 170.609375 195.367188 170.296875 195.609375 C 168.5 196.945312 166.65625 198.175781 164.765625 199.300781 C 164.855469 199.636719 164.890625 199.972656 164.867188 200.316406 C 164.84375 200.660156 164.765625 200.992188 164.628906 201.308594 C 164.492188 201.625 164.308594 201.910156 164.078125 202.167969 C 163.847656 202.421875 163.578125 202.632812 163.273438 202.796875 C 162.972656 202.960938 162.652344 203.070312 162.308594 203.128906 C 161.96875 203.183594 161.628906 203.179688 161.289062 203.121094 C 160.953125 203.0625 160.632812 202.949219 160.332031 202.78125 C 160.03125 202.613281 159.765625 202.398438 159.535156 202.140625 C 157.707031 203.035156 155.851562 203.835938 153.964844 204.550781 C 153.421875 204.757812 152.867188 204.804688 152.296875 204.691406 C 151.730469 204.578125 151.234375 204.324219 150.808594 203.929688 Z M 101.992188 142.890625 C 101.5625 142.488281 101.269531 142.003906 101.121094 141.433594 C 100.96875 140.863281 100.984375 140.296875 101.160156 139.734375 C 101.335938 139.171875 101.652344 138.699219 102.101562 138.320312 C 102.550781 137.9375 103.070312 137.707031 103.652344 137.625 C 106.90625 137.191406 110.152344 137.207031 113.398438 137.675781 C 116.644531 138.140625 119.765625 139.039062 122.761719 140.371094 C 123.125 140.535156 123.445312 140.765625 123.71875 141.0625 C 123.996094 141.355469 124.203125 141.6875 124.34375 142.066406 C 124.484375 142.441406 124.550781 142.832031 124.539062 143.230469 C 124.527344 143.632812 124.441406 144.019531 124.277344 144.386719 C 124.113281 144.753906 123.882812 145.078125 123.59375 145.355469 C 123.300781 145.632812 122.96875 145.84375 122.59375 145.988281 C 122.21875 146.136719 121.832031 146.207031 121.429688 146.199219 C 121.027344 146.191406 120.640625 146.109375 120.273438 145.949219 C 117.800781 144.851562 115.222656 144.113281 112.546875 143.734375 C 109.867188 143.351562 107.1875 143.339844 104.503906 143.703125 C 104.042969 143.765625 103.59375 143.722656 103.15625 143.582031 C 102.714844 143.4375 102.328125 143.207031 101.992188 142.890625 Z M 144.007812 170.417969 C 143.796875 170.21875 143.617188 169.996094 143.46875 169.742188 C 140.59375 164.761719 137.242188 160.121094 133.414062 155.828125 C 133.140625 155.527344 132.933594 155.1875 132.792969 154.808594 C 132.652344 154.425781 132.589844 154.03125 132.609375 153.625 C 132.625 153.21875 132.71875 152.832031 132.890625 152.460938 C 133.0625 152.09375 133.296875 151.773438 133.597656 151.496094 C 133.898438 151.222656 134.238281 151.015625 134.621094 150.875 C 135 150.734375 135.394531 150.671875 135.800781 150.691406 C 136.207031 150.707031 136.59375 150.800781 136.964844 150.972656 C 137.332031 151.144531 137.652344 151.378906 137.925781 151.679688 C 142.039062 156.28125 145.636719 161.253906 148.722656 166.601562 C 148.910156 166.917969 149.039062 167.253906 149.105469 167.617188 C 149.167969 167.976562 149.171875 168.339844 149.105469 168.699219 C 149.039062 169.0625 148.914062 169.402344 148.726562 169.71875 C 148.539062 170.035156 148.304688 170.308594 148.019531 170.539062 C 147.734375 170.769531 147.414062 170.945312 147.066406 171.0625 C 146.71875 171.179688 146.359375 171.230469 145.992188 171.21875 C 145.625 171.207031 145.273438 171.128906 144.933594 170.992188 C 144.59375 170.851562 144.289062 170.65625 144.019531 170.40625 Z M 179.421875 183.222656 C 179.132812 182.953125 178.902344 182.640625 178.738281 182.285156 C 178.570312 181.929688 178.472656 181.554688 178.449219 181.164062 C 178.425781 180.769531 178.480469 180.386719 178.605469 180.015625 C 178.730469 179.640625 178.917969 179.304688 179.175781 179.003906 C 182.894531 174.609375 186.136719 169.882812 188.894531 164.828125 C 189.082031 164.460938 189.335938 164.148438 189.652344 163.882812 C 189.96875 163.621094 190.320312 163.429688 190.714844 163.308594 C 191.109375 163.1875 191.507812 163.148438 191.917969 163.191406 C 192.324219 163.230469 192.710938 163.351562 193.070312 163.546875 C 193.429688 163.746094 193.738281 164.003906 193.996094 164.324219 C 194.25 164.644531 194.433594 165.003906 194.542969 165.398438 C 194.65625 165.796875 194.683594 166.195312 194.632812 166.605469 C 194.582031 167.011719 194.453125 167.394531 194.25 167.75 C 191.289062 173.171875 187.8125 178.242188 183.820312 182.957031 C 183.558594 183.265625 183.246094 183.515625 182.886719 183.699219 C 182.527344 183.882812 182.144531 183.992188 181.738281 184.027344 C 181.335938 184.058594 180.941406 184.011719 180.554688 183.890625 C 180.167969 183.765625 179.824219 183.570312 179.515625 183.308594 Z M 196.5 152.144531 C 196.070312 151.742188 195.777344 151.253906 195.628906 150.683594 C 195.480469 150.113281 195.496094 149.546875 195.675781 148.984375 C 197.425781 143.472656 198.683594 137.851562 199.441406 132.121094 C 199.484375 131.714844 199.609375 131.332031 199.808594 130.972656 C 200.007812 130.613281 200.269531 130.304688 200.589844 130.050781 C 200.914062 129.796875 201.273438 129.613281 201.671875 129.507812 C 202.066406 129.398438 202.46875 129.371094 202.875 129.421875 C 203.285156 129.476562 203.664062 129.605469 204.019531 129.8125 C 204.375 130.023438 204.675781 130.289062 204.921875 130.617188 C 205.167969 130.949219 205.339844 131.3125 205.4375 131.710938 C 205.535156 132.109375 205.554688 132.511719 205.492188 132.917969 C 204.6875 139.007812 203.351562 144.976562 201.484375 150.832031 C 201.363281 151.214844 201.171875 151.5625 200.910156 151.871094 C 200.648438 152.183594 200.335938 152.429688 199.976562 152.617188 C 199.617188 152.800781 199.238281 152.910156 198.835938 152.945312 C 198.429688 152.980469 198.039062 152.9375 197.652344 152.8125 C 197.21875 152.675781 196.835938 152.453125 196.5 152.144531 Z M 201.214844 116.964844 C 200.617188 116.394531 200.300781 115.695312 200.269531 114.867188 C 200.054688 109.085938 199.359375 103.359375 198.179688 97.695312 C 198.09375 97.296875 198.085938 96.898438 198.160156 96.5 C 198.234375 96.097656 198.382812 95.726562 198.605469 95.386719 C 198.824219 95.042969 199.105469 94.757812 199.441406 94.527344 C 199.777344 94.296875 200.144531 94.140625 200.542969 94.058594 C 200.941406 93.976562 201.339844 93.972656 201.738281 94.046875 C 202.136719 94.125 202.507812 94.273438 202.847656 94.496094 C 203.1875 94.722656 203.46875 95.003906 203.695312 95.339844 C 203.921875 95.675781 204.078125 96.046875 204.15625 96.445312 C 205.394531 102.433594 206.125 108.480469 206.355469 114.59375 C 206.378906 115.210938 206.230469 115.785156 205.90625 116.3125 C 205.582031 116.839844 205.136719 117.234375 204.574219 117.492188 C 204.011719 117.75 203.425781 117.832031 202.816406 117.734375 C 202.203125 117.636719 201.671875 117.375 201.21875 116.953125 Z M 193.960938 82.222656 C 193.621094 81.910156 193.371094 81.539062 193.203125 81.109375 C 191.085938 75.738281 188.511719 70.59375 185.484375 65.675781 C 185.269531 65.332031 185.128906 64.960938 185.0625 64.558594 C 185 64.160156 185.011719 63.761719 185.105469 63.367188 C 185.199219 62.972656 185.363281 62.609375 185.597656 62.277344 C 185.835938 61.949219 186.128906 61.675781 186.472656 61.460938 C 186.816406 61.25 187.191406 61.109375 187.589844 61.042969 C 187.992188 60.976562 188.386719 60.988281 188.78125 61.082031 C 189.179688 61.171875 189.539062 61.339844 189.871094 61.574219 C 190.199219 61.8125 190.472656 62.101562 190.683594 62.445312 C 193.910156 67.667969 196.644531 73.136719 198.894531 78.851562 C 199.027344 79.171875 199.101562 79.511719 199.117188 79.859375 C 199.136719 80.207031 199.09375 80.550781 198.992188 80.886719 C 198.894531 81.222656 198.738281 81.53125 198.53125 81.8125 C 198.328125 82.09375 198.078125 82.335938 197.789062 82.53125 C 197.5 82.730469 197.1875 82.875 196.847656 82.964844 C 196.511719 83.050781 196.167969 83.082031 195.820312 83.054688 C 195.472656 83.027344 195.136719 82.941406 194.816406 82.796875 C 194.5 82.65625 194.214844 82.464844 193.960938 82.222656 Z M 131.082031 23.074219 C 130.828125 22.835938 130.625 22.5625 130.464844 22.25 C 130.308594 21.941406 130.207031 21.613281 130.160156 21.269531 C 130.113281 20.925781 130.125 20.582031 130.195312 20.242188 C 130.265625 19.902344 130.390625 19.582031 130.570312 19.28125 C 130.75 18.984375 130.976562 18.726562 131.242188 18.503906 C 131.511719 18.28125 131.808594 18.113281 132.136719 17.992188 C 132.464844 17.871094 132.800781 17.808594 133.148438 17.804688 C 133.496094 17.800781 133.835938 17.855469 134.164062 17.964844 C 139.960938 19.929688 145.546875 22.371094 150.929688 25.28125 C 151.296875 25.464844 151.617188 25.714844 151.882812 26.03125 C 152.152344 26.34375 152.347656 26.699219 152.46875 27.09375 C 152.59375 27.488281 152.632812 27.890625 152.59375 28.300781 C 152.554688 28.710938 152.4375 29.097656 152.238281 29.460938 C 152.042969 29.824219 151.78125 30.136719 151.457031 30.394531 C 151.136719 30.652344 150.773438 30.835938 150.375 30.949219 C 149.980469 31.058594 149.574219 31.089844 149.164062 31.039062 C 148.753906 30.984375 148.371094 30.855469 148.015625 30.648438 C 142.929688 27.894531 137.652344 25.585938 132.175781 23.726562 C 131.765625 23.585938 131.402344 23.367188 131.082031 23.074219 Z M 175.328125 52.085938 C 175.257812 52.027344 175.191406 51.96875 175.128906 51.902344 C 171.25 47.617188 167.03125 43.695312 162.472656 40.140625 C 162.152344 39.890625 161.894531 39.585938 161.695312 39.234375 C 161.496094 38.878906 161.371094 38.5 161.324219 38.097656 C 161.273438 37.695312 161.304688 37.296875 161.414062 36.90625 C 161.523438 36.515625 161.703125 36.160156 161.953125 35.839844 C 162.203125 35.519531 162.503906 35.257812 162.859375 35.058594 C 163.214844 34.859375 163.589844 34.734375 163.996094 34.683594 C 164.398438 34.632812 164.796875 34.664062 165.1875 34.773438 C 165.578125 34.882812 165.933594 35.058594 166.253906 35.3125 C 171.078125 39.082031 175.546875 43.234375 179.660156 47.769531 C 179.945312 48.058594 180.164062 48.390625 180.316406 48.765625 C 180.46875 49.140625 180.542969 49.53125 180.539062 49.9375 C 180.539062 50.34375 180.457031 50.730469 180.300781 51.105469 C 180.140625 51.476562 179.917969 51.808594 179.628906 52.09375 C 179.339844 52.378906 179.007812 52.597656 178.632812 52.75 C 178.257812 52.902344 177.867188 52.976562 177.464844 52.976562 C 177.058594 52.972656 176.667969 52.894531 176.296875 52.734375 C 175.921875 52.578125 175.59375 52.355469 175.308594 52.066406 Z M 175.328125 52.085938 "/></g></g></g></g><g clip-rule="nonzero" clip-path="url(#827879b20d)"><g clip-rule="nonzero" clip-path="url(#94b24cc9be)"><g clip-rule="nonzero" clip-path="url(#0161fca2b7)"><g clip-rule="nonzero" clip-path="url(#b713c4ec46)"><path style=" stroke:none;fill-rule:nonzero;fill:#000000;fill-opacity:1;" d="M 176.28125 262.710938 C 175.757812 262.230469 175.445312 261.632812 175.339844 260.929688 C 174.90625 257.964844 174.40625 254.960938 173.863281 251.996094 C 173.789062 251.597656 173.796875 251.203125 173.882812 250.804688 C 173.96875 250.410156 174.128906 250.042969 174.359375 249.710938 C 174.589844 249.378906 174.875 249.101562 175.214844 248.882812 C 175.558594 248.664062 175.925781 248.515625 176.328125 248.445312 C 176.726562 248.371094 177.121094 248.378906 177.519531 248.464844 C 177.914062 248.550781 178.277344 248.710938 178.609375 248.941406 C 178.945312 249.171875 179.21875 249.457031 179.4375 249.800781 C 179.65625 250.140625 179.800781 250.511719 179.871094 250.910156 C 180.433594 253.933594 180.9375 257.011719 181.378906 260.042969 C 181.425781 260.355469 181.421875 260.667969 181.371094 260.980469 C 181.320312 261.292969 181.222656 261.589844 181.078125 261.871094 C 180.933594 262.152344 180.75 262.40625 180.53125 262.628906 C 180.308594 262.855469 180.054688 263.042969 179.777344 263.1875 C 179.496094 263.335938 179.199219 263.4375 178.890625 263.492188 C 178.578125 263.546875 178.265625 263.554688 177.953125 263.515625 C 177.640625 263.472656 177.339844 263.382812 177.054688 263.25 C 176.769531 263.113281 176.507812 262.941406 176.277344 262.726562 Z M 176.28125 262.710938 "/></g></g></g></g><g clip-rule="nonzero" clip-path="url(#aee934a0af)"><g clip-rule="nonzero" clip-path="url(#e7045ac336)"><g clip-rule="nonzero" clip-path="url(#2b706d738b)"><g clip-rule="nonzero" clip-path="url(#4f5654aad9)"><path style=" stroke:none;fill-rule:nonzero;fill:#000000;fill-opacity:1;" d="M 181.105469 297.222656 C 173.285156 280.472656 160.601562 259.941406 147.933594 247.605469 L 177.722656 255.675781 L 205.804688 242.8125 C 195.296875 257.066406 186.109375 279.410156 181.105469 297.222656 Z M 181.105469 297.222656 "/></g></g></g></g><g style="fill:#000000;fill-opacity:1;"><g transform="translate(138.920824, 159.880054)"><path style="stroke:none" d="M 0.75 0 L 0.15625 0 L 1.265625 -1.84375 L 0.21875 -3.5625 L 0.8125 -3.5625 L 1.640625 -2.1875 L 1.703125 -2.1875 L 2.53125 -3.5625 L 3.09375 -3.5625 L 2.078125 -1.84375 L 3.15625 0 L 2.5625 0 L 1.6875 -1.5 L 1.609375 -1.5 Z M 0.75 0 "/></g></g></g></svg>