<svg xmlns="http://www.w3.org/2000/svg" xmlns:xlink="http://www.w3.org/1999/xlink" width="600" zoomAndPan="magnify" viewBox="0 0 450 89.999999" height="120" preserveAspectRatio="xMidYMid meet" version="1.2"><defs><clipPath id="9a9d3eec24"><path d="M 2.871094 39.269531 L 171.292969 39.269531 L 171.292969 80.25 L 2.871094 80.25 Z M 2.871094 39.269531 "/></clipPath><clipPath id="d9cb4b51c0"><path d="M 166 9 L 224 9 L 224 80.25 L 166 80.25 Z M 166 9 "/></clipPath><clipPath id="db4c6347d3"><path d="M 279 39.269531 L 447.457031 39.269531 L 447.457031 80 L 279 80 Z M 279 39.269531 "/></clipPath></defs><g id="9d55c1e6d2"><path style=" stroke:none;fill-rule:nonzero;fill:#7dc72a;fill-opacity:1;" d="M 178.203125 9.222656 L 176.144531 16.410156 L 171.882812 36.292969 L 27.019531 36.292969 L 42.015625 9 L 160.597656 9.109375 C 160.644531 9.148438 160.699219 9.1875 160.746094 9.222656 L 178.203125 9.222656 "/><g clip-rule="nonzero" clip-path="url(#9a9d3eec24)"><path style=" stroke:none;fill-rule:nonzero;fill:#7dc72a;fill-opacity:1;" d="M 171.203125 39.519531 L 170.984375 40.535156 L 170.972656 40.589844 L 161.878906 80.046875 L 2.871094 80.269531 L 25.257812 39.519531 L 171.203125 39.519531 "/></g><g clip-rule="nonzero" clip-path="url(#d9cb4b51c0)"><path style=" stroke:none;fill-rule:nonzero;fill:#7dc72a;fill-opacity:1;" d="M 223.558594 9.222656 L 223.558594 79.972656 L 166.148438 80.042969 L 180.582031 17.425781 L 182.472656 9.222656 L 223.558594 9.222656 "/></g><path style=" stroke:none;fill-rule:nonzero;fill:#7dc72a;fill-opacity:1;" d="M 283.921875 79.882812 L 226.773438 79.972656 L 226.773438 9.222656 L 267.855469 9.222656 L 269.847656 17.84375 L 278.25 54.316406 L 278.257812 54.351562 L 283.921875 79.882812 "/><path style=" stroke:none;fill-rule:nonzero;fill:#7dc72a;fill-opacity:1;" d="M 422.828125 36.292969 L 278.367188 36.292969 L 273.9375 17.066406 C 274.125 17.023438 274.324219 16.980469 274.515625 16.9375 L 274.46875 16.890625 L 273.9375 17.066406 L 272.125 9.222656 L 292.03125 9.222656 L 407.332031 9.332031 L 407.527344 9.332031 L 422.828125 36.292969 "/><g clip-rule="nonzero" clip-path="url(#db4c6347d3)"><path style=" stroke:none;fill-rule:nonzero;fill:#7dc72a;fill-opacity:1;" d="M 447.457031 79.652344 L 447.277344 79.652344 L 288.410156 79.890625 L 279.109375 39.515625 L 424.671875 39.515625 L 447.457031 79.652344 "/></g><g style="fill:#000000;fill-opacity:1;"><g transform="translate(223.993731, 46.125)"><path style="stroke:none" d="M 0.453125 0 L 0.09375 0 L 0.765625 -1.125 L 0.125 -2.15625 L 0.484375 -2.15625 L 0.984375 -1.328125 L 1.03125 -1.328125 L 1.53125 -2.15625 L 1.875 -2.15625 L 1.265625 -1.125 L 1.90625 0 L 1.546875 0 L 1.015625 -0.90625 L 0.96875 -0.90625 Z M 0.453125 0 "/></g></g></g></svg>